<?xml version="1.0" encoding="UTF-8"?>
<svg width="196px" height="196px" viewBox="0 0 196 196" version="1.1" xmlns="http://www.w3.org/2000/svg" xmlns:xlink="http://www.w3.org/1999/xlink">
    <!-- Generator: Sketch 50.2 (55047) - http://www.bohemiancoding.com/sketch -->
    <title>Effective-Coaching-Path</title>
    <desc>Created with Sketch.</desc>
    <defs>
        <linearGradient x1="50.5846517%" y1="99.9939911%" x2="49.4327598%" y2="0.000625621161%" id="linearGradient-1">
            <stop stop-color="#EDBC46" offset="0%"></stop>
            <stop stop-color="#EDA44C" offset="27%"></stop>
            <stop stop-color="#C48031" offset="61%"></stop>
            <stop stop-color="#D89D3B" offset="80%"></stop>
            <stop stop-color="#FFED95" offset="100%"></stop>
        </linearGradient>
        <linearGradient x1="0.00539051269%" y1="50.0000001%" x2="99.9999997%" y2="50.0000001%" id="linearGradient-2">
            <stop stop-color="#EDBC46" offset="0%"></stop>
            <stop stop-color="#EDA44C" offset="27%"></stop>
            <stop stop-color="#C48031" offset="61%"></stop>
            <stop stop-color="#D89D3B" offset="80%"></stop>
            <stop stop-color="#FFED95" offset="100%"></stop>
        </linearGradient>
        <radialGradient cx="48.9743851%" cy="50.8087385%" fx="48.9743851%" fy="50.8087385%" r="49.9457792%" id="radialGradient-3">
            <stop stop-color="#7D1416" offset="0%"></stop>
            <stop stop-color="#981819" offset="9%"></stop>
            <stop stop-color="#C61F1F" offset="26%"></stop>
            <stop stop-color="#E22323" offset="39%"></stop>
            <stop stop-color="#ED2524" offset="46%"></stop>
            <stop stop-color="#EC1E24" offset="87%"></stop>
            <stop stop-color="#DB1C22" offset="89%"></stop>
            <stop stop-color="#A41619" offset="94%"></stop>
            <stop stop-color="#811214" offset="98%"></stop>
            <stop stop-color="#741112" offset="100%"></stop>
        </radialGradient>
        <radialGradient cx="49.1606295%" cy="50%" fx="49.1606295%" fy="50%" r="50%" id="radialGradient-4">
            <stop stop-color="#5E0000" offset="0%"></stop>
            <stop stop-color="#5E0000" offset="61%"></stop>
            <stop stop-color="#5E0000" offset="87%"></stop>
            <stop stop-color="#BE1E2D" offset="100%"></stop>
        </radialGradient>
        <linearGradient x1="1.36326081%" y1="61.4033413%" x2="98.2649408%" y2="34.5584726%" id="linearGradient-5">
            <stop stop-color="#4D1211" offset="0%"></stop>
            <stop stop-color="#521312" offset="2%"></stop>
            <stop stop-color="#601414" offset="4%"></stop>
            <stop stop-color="#781718" offset="6%"></stop>
            <stop stop-color="#991B1D" offset="8%"></stop>
            <stop stop-color="#C32024" offset="11%"></stop>
            <stop stop-color="#D82327" offset="12%"></stop>
            <stop stop-color="#AE524F" offset="29%"></stop>
            <stop stop-color="#912829" offset="43%"></stop>
            <stop stop-color="#851719" offset="50%"></stop>
            <stop stop-color="#D52427" offset="78%"></stop>
        </linearGradient>
        <linearGradient x1="1.36363636%" y1="61.3937947%" x2="98.292011%" y2="34.5584726%" id="linearGradient-6">
            <stop stop-color="#ED306E" offset="0%"></stop>
            <stop stop-color="#ED3571" offset="2%"></stop>
            <stop stop-color="#EE437A" offset="4%"></stop>
            <stop stop-color="#F05B89" offset="6%"></stop>
            <stop stop-color="#F27C9F" offset="8%"></stop>
            <stop stop-color="#F5A6B9" offset="10%"></stop>
            <stop stop-color="#F7C1CB" offset="12%"></stop>
            <stop stop-color="#F79FB1" offset="29%"></stop>
            <stop stop-color="#F17393" offset="43%"></stop>
            <stop stop-color="#EF6287" offset="50%"></stop>
            <stop stop-color="#ED306E" offset="70%"></stop>
        </linearGradient>
        <linearGradient x1="40.305072%" y1="50.4602356%" x2="63.3268804%" y2="49.2705563%" id="linearGradient-7">
            <stop stop-color="#9F1D21" offset="0%"></stop>
            <stop stop-color="#A21E21" offset="12%"></stop>
            <stop stop-color="#994845" offset="29%"></stop>
            <stop stop-color="#7F2222" offset="60%"></stop>
            <stop stop-color="#731112" offset="78%"></stop>
            <stop stop-color="#761213" offset="85%"></stop>
            <stop stop-color="#811517" offset="90%"></stop>
            <stop stop-color="#931A1C" offset="96%"></stop>
            <stop stop-color="#A21E21" offset="99%"></stop>
        </linearGradient>
        <linearGradient x1="39.4534837%" y1="50.3424589%" x2="62.5058067%" y2="49.1247938%" id="linearGradient-8">
            <stop stop-color="#B15271" offset="0%"></stop>
            <stop stop-color="#B65472" offset="3%"></stop>
            <stop stop-color="#C45975" offset="6%"></stop>
            <stop stop-color="#DC6379" offset="10%"></stop>
            <stop stop-color="#EC697C" offset="12%"></stop>
            <stop stop-color="#F7C1CB" offset="29%"></stop>
            <stop stop-color="#F7B0BE" offset="38%"></stop>
            <stop stop-color="#F79FB1" offset="50%"></stop>
            <stop stop-color="#EC697C" offset="78%"></stop>
            <stop stop-color="#E9687B" offset="84%"></stop>
            <stop stop-color="#DE6379" offset="89%"></stop>
            <stop stop-color="#CC5C76" offset="94%"></stop>
            <stop stop-color="#B35371" offset="99%"></stop>
            <stop stop-color="#B15271" offset="99%"></stop>
        </linearGradient>
    </defs>
    <g id="Page-1" stroke="none" stroke-width="1" fill="none" fill-rule="evenodd">
        <g id="Toastmasters-Pathways-Infographic" transform="translate(-423.000000, -6217.000000)" fill-rule="nonzero">
            <g id="10-Paths" transform="translate(0.000000, 4217.000000)">
                <g id="Effective-Coaching-Path" transform="translate(422.000000, 1999.000000)">
                    <circle id="Oval" fill="url(#linearGradient-1)" transform="translate(99.005257, 98.998526) rotate(-89.340000) translate(-99.005257, -98.998526) " cx="99.0052573" cy="98.9985263" r="97.5"></circle>
                    <path d="M191.75,99 C191.744477,150.223108 150.216443,191.743681 98.9933341,191.74 C47.7702255,191.736318 6.2481599,150.209776 6.2500006,98.986667 C6.2518413,47.7635583 47.7768913,6.2400003 99,6.24 C123.600562,6.23999986 147.193403,16.0132195 164.58769,33.4093815 C181.981976,50.8055435 191.752652,74.399438 191.75,99 Z" id="Shape" fill="url(#linearGradient-2)"></path>
                    <circle id="Oval" fill="url(#radialGradient-3)" transform="translate(98.999220, 99.000341) rotate(-0.120000) translate(-98.999220, -99.000341) " cx="98.99922" cy="99.0003413" r="88.23"></circle>
                    <circle id="Oval" fill="url(#radialGradient-4)" transform="translate(100.324710, 98.326168) rotate(-89.640000) translate(-100.324710, -98.326168) " cx="100.32471" cy="98.3261677" r="77.38"></circle>
                    <g id="Group" transform="translate(26.000000, 44.000000)">
                        <g opacity="0.75" style="mix-blend-mode: multiply;" transform="translate(5.000000, 5.000000)" fill="#231F20" id="Shape">
                            <path d="M5.52,21.2 C5.52,21.2 11.63,10.6 37.16,7.2 C62.88,3.78 80.79,15.56 111.59,10.88 C122.45,9.23 130.54,7.38 132.59,0.96 L150.73,81.09 C150.73,81.09 135.73,95.82 110.01,95.82 C84.29,95.82 59.56,82.12 23.13,105.7 L5.52,21.2 Z"></path>
                            <path d="M5.44,20.84 C5.44,20.84 11.55,10.24 37.08,6.84 C62.79,3.43 80.71,15.21 111.5,10.53 C122.37,8.88 130.5,7.02 132.5,0.61 L150.63,80.73 C150.63,80.73 135.63,95.46 109.92,95.46 C84.21,95.46 59.47,81.77 23.04,105.34 L5.44,20.84 Z"></path>
                            <path d="M25.9103125,119.467207 L4.81,17.4 C4.81,17.4 4.19,16.4 2.18,16.85 C0.17,17.3 0.41,18.49 0.41,18.49 L20.5703125,120.137207 C20.5703125,120.527207 21.5103125,120.977207 23.7503125,120.607207 C24.7569792,120.44054 25.4769792,120.06054 25.9103125,119.467207 Z"></path>
                            <path d="M20.63,105.47 C21.92,105.17 22.98,105.11 23.08,105.35 L5.45,20.63 C5.27,20.31 4.27,20.27 3.12,20.56 C1.97,20.85 1,21.4 1.12,21.77 L18.34,106.6 C18.28,106.34 19.31,105.78 20.63,105.47 Z"></path>
                            <path d="M94,84.71 C94,84.71 91.13,86.64 89.58,86.12 C88.03,85.6 85.24,83.5 84.96,82.05 C84.68,80.6 84.86,80.33 85.05,80.17 C85.24,80.01 85.49,79.55 84.65,79.69 C84.2336094,79.7232742 83.8227258,79.5778287 83.52,79.29 L83.04,80.03 C83.0487526,80.1631897 83.0487526,80.2968103 83.04,80.43 C82.9836388,80.6820936 82.8591077,80.9138598 82.68,81.1 C82.7213916,81.431823 82.7447592,81.7656464 82.75,82.1 C82.75,82.77 82.75,83.1 82.6,83.23 C82.45,83.36 81.97,83.15 81.97,83.15 C81.97,83.15 81.43,84.22 81.24,84.62 C81.0541309,85.0296283 80.6815251,85.3239869 80.24,85.41 C79.87,85.41 79.78,85.11 79.63,85.2 C79.4904635,85.2561246 79.3400645,85.2800517 79.19,85.27 C79.9964512,86.5069438 80.5189612,87.907134 80.72,89.37 C80.8055778,90.3681691 80.8055778,91.3718309 80.72,92.37 C85.48,92.92 90.12,93.64 94.72,94.25 C94.25,90.17 93.77,85.52 94,84.71 Z"></path>
                            <path d="M83.72,73.23 L83.84,73.42 C83.898006,73.5466061 83.9683458,73.6671887 84.05,73.78 C84.0964394,73.8428798 84.1465253,73.9029829 84.2,73.96 C84.3515243,74.1257854 84.4855653,74.3067407 84.6,74.5 C84.6900956,74.6473169 84.6900956,74.8326831 84.6,74.98 C84.4833271,75.2079592 84.4413445,75.4668524 84.48,75.72 C84.5316586,76.1697215 84.4517641,76.6247726 84.25,77.03 C84.2991285,77.1554305 84.3327118,77.2864053 84.35,77.42 C85.0053385,77.2535307 85.675017,77.1497305 86.35,77.11 C88.45,76.93 93.43,76.37 94.29,76.76 L94.06,72.76 C92.1331079,73.7219804 90.0941562,74.44082 87.99,74.9 C85.49,75.33 85.36,75.41 83.72,72.9 C83.691612,73.0081685 83.691612,73.1218315 83.72,73.23 Z"></path>
                            <path d="M83.12,72.37 L83.34,72.37 C83.28,72.27 83.23,72.2 83.16,72.1 L83.07,71.96 C83.0585706,72.0730452 83.0585706,72.1869548 83.07,72.3 C83.07,72.3 83.07,72.36 83.12,72.37 Z"></path>
                            <path d="M42,89.84 C41.86,89.66 39.68,83.7 39.49,83.17 C39.1242734,83.5346937 38.7897684,83.9294096 38.49,84.35 C38.41,84.55 38.24,84.59 38.05,84.64 L37.92,84.64 C37.8335672,84.6683148 37.7548509,84.7162291 37.69,84.78 C37.5948963,84.8710406 37.4827513,84.9424056 37.36,84.99 C37.2480896,85.0523139 37.1119104,85.0523139 37,84.99 C36.9869433,85.0862626 36.9527975,85.1784562 36.9,85.26 C37.0866305,85.4925726 37.2538585,85.74007 37.4,86 C37.4795701,86.1439263 37.5464883,86.2944922 37.6,86.45 C37.6398304,86.5920999 37.707847,86.7247322 37.8,86.84 C37.8988536,86.9277146 38.0199423,86.9865291 38.15,87.01 C38.26,87.01 38.39,87.09 38.54,87.16 C38.7145547,87.2203893 38.8439746,87.3688416 38.88,87.55 L38.95,87.76 C39.0423928,87.9744533 39.1671815,88.1734407 39.32,88.35 L39.41,88.43 L39.49,88.48 C39.64,88.56 40.01,88.75 40.3,88.93 L40.46,89.03 L40.59,89.13 C40.71,89.24 40.88,89.38 41.04,89.5 C41.0659722,89.5280958 41.0963755,89.5517428 41.13,89.57 L41.21,89.64 L41.28,89.69 L41.35,89.74 L41.4,89.74 L41.48,89.74 L41.57,89.74 L41.77,89.74 L42,89.74 L42,89.84 Z"></path>
                            <path d="M128.36,92.81 L127.94,92.15 C127.33,91.15 127.61,87.32 127.61,87.32 C129.61,86.32 129.72,84.32 130.38,82.12 C131.04,79.92 130.1,69.79 130.03,66.9 C129.946826,62.7251942 129.379703,58.5741239 128.34,54.53 C127.03,49.53 120.99,45.7 119.34,44.1 C117.69,42.5 114.34,37.49 113.67,36.55 C113,35.61 113.79,32.55 114.88,29.55 C115.987889,26.0927655 115.715554,22.340996 114.12,19.08 C112.46,15.86 109.45,14.94 107.66,14.08 C105.87,13.22 97.75,13.89 94.91,16.14 C92.07,18.39 94.52,21.32 94.45,21.42 C92.01,24.96 93.45,27.23 93.45,28.42 C93.45,29.61 92.12,31.33 92,33 C91.88,34.67 94.14,33.13 94.13,33.66 C94.0810555,34.1556897 94.3174602,34.6362501 94.74,34.9 C95.1568123,35.3445663 95.4738826,35.8730167 95.67,36.45 C95.11,36.55 95.67,37.68 95.54,39.45 C95.41,41.22 96.96,41.68 99.45,41.8 C101.94,41.92 102.25,42.8 102.39,43.92 C102.616391,44.7688209 102.354688,45.6732361 101.71,46.27 C100.396914,47.4650918 99.1736067,48.7552464 98.05,50.13 C96.91,51.54 95.33,56.92 94.58,57.75 C93.83,58.58 93.78,59.61 92.65,60.17 C91.6084583,60.5630748 90.7355091,61.3052583 90.18,62.27 C89.79,63.16 88.58,62.21 87.86,61.17 C87.14,60.13 86.86,59.45 86.01,58.39 C85.16,57.33 84.75,54.97 84.18,53.77 C83.6526866,52.3054613 83.8375253,50.678881 84.68,49.37 C84.912496,48.9822058 84.9799018,48.5174186 84.867147,48.0795544 C84.7543923,47.6416902 84.4708811,47.2672679 84.08,47.04 L85.23,46.58 C87.1,46.58 88.62,45.47 88.48,43.65 C88.4729309,42.6791619 88.0099898,41.7680938 87.23,41.19 C85.04,39.75 83.23,41.74 82.88,42.31 C82.53,42.88 82.16,42.54 82.16,42.54 C81.6346348,41.8045644 80.7457795,41.4197786 79.85,41.54 C78.92,41.72 79.57,43.05 79.57,43.05 C78.5899035,42.7800642 77.5701116,43.3251254 77.25,44.29 C76.9164273,44.2538007 76.5826703,44.3565817 76.3272494,44.5741624 C76.0718286,44.7917431 75.9172934,45.1049148 75.9,45.44 C75.9,45.44 75.83,45.13 75.07,45.57 C74.31,46.01 74.97,47.7 74.97,47.7 C74.97,47.7 69.97,51.16 68.68,51.77 C67.39,52.38 67.57,53.07 66.8,53.48 C66.03,53.89 65.6,54.33 66.11,55.33 C66.62,56.33 67.18,56.05 68.11,55.7 C68.5555064,55.4354003 69.0619513,55.2907017 69.58,55.28 C70.58,55.16 76.17,51.62 76.17,51.62 C76.2722455,52.1991569 76.4935797,52.7507898 76.82,53.24 C76.82,53.24 74.07,57.39 73.92,58.18 C73.8,58.76 77.61,64.11 80.54,68.29 C81.4185021,68.6066094 82.2469641,69.0477823 83,69.6 C83.1877552,70.2941954 83.1877552,71.0258046 83,71.72 L83.06,71.54 L83,71.91 L83.09,72.05 C83.16,72.15 83.21,72.22 83.27,72.32 C83.369869,72.30916 83.4682349,72.3507764 83.53,72.43 C83.5743711,72.4965976 83.6049715,72.5713986 83.62,72.65 C83.6334615,72.7260758 83.6334615,72.8039242 83.62,72.88 C85.26,75.36 85.39,75.28 87.89,74.88 C89.9941562,74.42082 92.0331079,73.7019804 93.96,72.74 L94.19,76.74 C93.33,76.35 88.35,76.91 86.25,77.09 C85.575017,77.1297305 84.9053385,77.2335307 84.25,77.4 C84.2673205,77.5887984 84.246925,77.7791564 84.19,77.96 C83.983352,78.410984 83.7426559,78.8455742 83.47,79.26 C83.7727258,79.5478287 84.1836094,79.6932742 84.6,79.66 C85.44,79.52 85.19,79.97 85,80.14 C84.81,80.31 84.63,80.57 84.91,82.02 C85.19,83.47 87.98,85.57 89.53,86.09 C91.08,86.61 93.95,84.68 93.95,84.68 C93.69,85.49 94.17,90.14 94.67,94.23 C99.7465633,94.9853152 104.868038,95.3995767 110,95.47 C116.216205,95.4726908 122.400154,94.5767592 128.36,92.81 Z"></path>
                            <path d="M80.72,89.39 C80.5189612,87.927134 79.9964512,86.5269438 79.19,85.29 C79.3400645,85.3000517 79.4904635,85.2761246 79.63,85.22 C79.78,85.13 79.87,85.45 80.24,85.43 C80.6815251,85.3439869 81.0541309,85.0496283 81.24,84.64 C81.43,84.24 81.97,83.17 81.97,83.17 C81.97,83.17 82.44,83.42 82.6,83.25 C82.76,83.08 82.77,82.79 82.75,82.12 C82.7447592,81.7856464 82.7213916,81.451823 82.68,81.12 C82.8591077,80.9338598 82.9836388,80.7020936 83.04,80.45 C83.0487526,80.3168103 83.0487526,80.1831897 83.04,80.05 L83.52,79.31 C83.1663269,79.0706295 83.0184616,78.6229266 83.16,78.22 C83.4077688,77.8076958 83.824999,77.5258825 84.3,77.45 C84.2827118,77.3164053 84.2491285,77.1854305 84.2,77.06 C84.4017641,76.6547726 84.4816586,76.1997215 84.43,75.75 C84.3913445,75.4968524 84.4333271,75.2379592 84.55,75.01 C84.6400956,74.8626831 84.6400956,74.6773169 84.55,74.53 C84.4355653,74.3367407 84.3015243,74.1557854 84.15,73.99 C84.0965253,73.9329829 84.0464394,73.8728798 84,73.81 C83.9183458,73.6971887 83.848006,73.5766061 83.79,73.45 L83.67,73.26 C83.6481607,73.1645668 83.6481607,73.0654332 83.67,72.97 C83.56,72.79 83.43,72.6 83.3,72.4 L83.08,72.4 C83.03,72.4 83,72.4 82.99,72.33 C82.9785706,72.2169548 82.9785706,72.1030452 82.99,71.99 C82.38,71.07 81.45,69.73 80.4,68.24 C78.51,67.4 76.27,66.53 76.15,66.5 C75.7569636,66.4506871 75.3749912,66.3357573 75.02,66.16 C74.6822073,65.8908751 74.2458762,65.7781562 73.82,65.85 C73.469375,65.9118695 73.110625,65.9118695 72.76,65.85 C72.8888195,65.6024603 72.9766268,65.3356613 73.02,65.06 C73.14,64.51 73.02,64.42 73.02,64.42 C73.4356479,64.3585132 73.7352725,63.9894104 73.71,63.57 C73.71,62.78 73.96,62.03 73.65,61.86 C73.5632791,61.7972241 73.4645638,61.7529724 73.36,61.73 C73.4363442,60.8350303 73.368822,59.933609 73.16,59.06 C71.9,56.19 65.97,56.92 65.79,60.17 C65.6778207,61.0537614 65.8164302,61.9512577 66.19,62.76 C66.19,62.76 65.88,62.84 66.13,63.76 C66.2381654,64.2709408 66.4916659,64.739743 66.86,65.11 C66.98,65.21 67.29,65.03 67.29,65.03 C67.3495457,65.3047309 67.4366533,65.5727544 67.55,65.83 C67.6374473,66.0045673 67.6884814,66.1950946 67.7,66.39 L67.7,66.45 C67.7032828,66.4732179 67.7032828,66.4967821 67.7,66.52 C67.6960176,66.5532144 67.6960176,66.5867856 67.7,66.62 C67.6116733,66.8501209 67.4791858,67.0607421 67.31,67.24 C67.03,67.51 66.76,67.74 66.71,67.79 C66.66,67.84 66.33,67.71 66.21,67.9 C66.09,68.09 66.11,67.97 66.02,67.98 C65.58,67.1 65.08,66.41 64.66,66.4 C63.9989969,66.3270793 63.3540633,66.1481186 62.75,65.87 C62.9427853,65.590486 63.0092554,65.2428307 62.9331822,64.9119121 C62.857109,64.5809936 62.6454933,64.2972661 62.35,64.13 C61.25,63.44 60.65,63.19 60.96,62.13 C61.27,61.07 60.86,60.23 60.45,58.88 C60.04,57.53 58.83,53.36 56,53.68 C54.245477,54.0273735 52.9348008,55.4972908 52.79,57.28 C52.63,58.88 52.33,58.8 52.44,59.67 C52.55,60.54 52.3,61.5 52.3,62.9 C52.4367089,64.0170979 52.2235851,65.1490995 51.69,66.14 C51.3423973,66.6260372 51.2054066,67.2316803 51.31,67.82 C50.6668755,67.9457758 50.0571598,68.2046495 49.52,68.58 C49.4618653,68.5444422 49.3973083,68.520658 49.33,68.51 C49.4063442,67.6150303 49.338822,66.713609 49.13,65.84 C47.87,62.97 41.94,63.7 41.76,66.95 C41.6478207,67.8337614 41.7864302,68.7312577 42.16,69.54 C42.16,69.54 41.85,69.62 42.1,70.54 C42.2081654,71.0509408 42.4616659,71.519743 42.83,71.89 C42.95,71.99 43.26,71.81 43.26,71.81 C43.3195457,72.0847309 43.4066533,72.3527544 43.52,72.61 C43.6074473,72.7845673 43.6584814,72.9750946 43.67,73.17 L43.67,73.23 L43.67,73.3 C43.6739824,73.3332144 43.6739824,73.3667856 43.67,73.4 C43.5892496,73.6315208 43.459653,73.8429679 43.29,74.02 C43.01,74.29 42.74,74.52 42.69,74.57 C42.64,74.62 42.31,74.49 42.19,74.68 C42.07,74.87 42.02,74.76 41.88,74.77 C41.6661889,74.766855 41.4578253,74.8374867 41.29,74.97 C40.9181884,75.1660792 40.5257939,75.320354 40.12,75.43 C39.3059205,75.6505218 38.5279086,75.9873234 37.81,76.43 C37.1009703,77.1354553 36.4551637,77.9017232 35.88,78.72 C35.3867745,79.398362 34.8489176,80.0431221 34.27,80.65 C33.8800876,81.0543052 33.5711932,81.5295274 33.36,82.05 C33.1409741,82.3926514 32.8862152,82.7111001 32.6,83 C32.11,83.64 32.36,83.68 32.5,83.66 C32.262169,83.9357583 32.1498529,84.2980685 32.19,84.66 C32.19,84.74 32.19,84.84 32.27,84.96 C32.35,85.08 32.34,85.22 32.39,85.36 C32.6184369,86.1178068 32.9552554,86.8385986 33.39,87.5 C33.52187,87.6613028 33.64217,87.8317278 33.75,88.01 C34.0195942,88.4556373 34.389384,88.8322751 34.83,89.11 L35.67,89.69 C36.1789874,90.1024024 36.7448172,90.4392059 37.35,90.69 L37.53,90.77 L37.78,90.94 C38.2782495,91.3242186 38.7555976,91.7348048 39.21,92.17 C39.2368095,92.2348658 39.2819959,92.2904798 39.34,92.33 C39.3938468,92.3552818 39.4561532,92.3552818 39.51,92.33 C39.6854802,92.4903177 39.8803263,92.6280537 40.09,92.74 C40.4569809,92.9084857 40.7945938,93.1346863 41.09,93.41 C41.4050629,93.7319338 41.8030938,93.9603689 42.24,94.07 C42.49,94.07 42.58,93.75 42.58,93.75 L42.89,93.84 C42.89,94.4 42.89,94.96 42.82,95.52 C56.82,90.7 69.14,91.02 80.72,92.36 C80.8038717,91.3717764 80.8038717,90.3782236 80.72,89.39 Z M42,89.87 L41.83,89.87 L41.63,89.87 L41.54,89.87 L41.46,89.87 L41.41,89.87 L41.34,89.82 L41.27,89.77 L41.19,89.7 C41.1563755,89.6817428 41.1259722,89.6580958 41.1,89.63 C40.94,89.51 40.77,89.37 40.65,89.26 L40.52,89.16 L40.36,89.06 C40.07,88.88 39.7,88.69 39.55,88.61 L39.47,88.56 L39.38,88.48 C39.2271815,88.3034407 39.1023928,88.1044533 39.01,87.89 L38.94,87.68 C38.9039746,87.4988416 38.7745547,87.3503893 38.6,87.29 C38.45,87.22 38.32,87.18 38.21,87.14 C38.0799423,87.1165291 37.9588536,87.0577146 37.86,86.97 C37.767847,86.8547322 37.6998304,86.7220999 37.66,86.58 C37.6064883,86.4244922 37.5395701,86.2739263 37.46,86.13 C37.3138585,85.87007 37.1466305,85.6225726 36.96,85.39 C37.0125274,85.2670522 37.0264763,85.1310507 37,85 C37.1119104,85.0623139 37.2480896,85.0623139 37.36,85 C37.4827513,84.9524056 37.5948963,84.8810406 37.69,84.79 C37.7548509,84.7262291 37.8335672,84.6783148 37.92,84.65 L38.05,84.65 C38.24,84.6 38.41,84.56 38.49,84.36 C38.7897684,83.9394096 39.1242734,83.5446937 39.49,83.18 C39.68,83.71 41.86,89.67 42,89.85 L42,89.87 Z"></path>
                            <path d="M83.07,72 L83.13,71.63 L83.07,71.81 C83.2577552,71.1158046 83.2577552,70.3841954 83.07,69.69 C82.2910872,69.1010858 81.4281246,68.632524 80.51,68.3 C81.51,69.79 82.51,71.13 83.1,72.05 L83.07,72 Z"></path>
                            <path d="M83.71,72.93 C83.7234615,72.8539242 83.7234615,72.7760758 83.71,72.7 C83.6949715,72.6213986 83.6643711,72.5465976 83.62,72.48 C83.5582349,72.4007764 83.459869,72.35916 83.36,72.37 C83.49,72.57 83.62,72.76 83.73,72.94 L83.71,72.93 Z"></path>
                            <path d="M83.19,78.2 C83.0484616,78.6029266 83.1963269,79.0506295 83.55,79.29 C83.8226559,78.8755742 84.063352,78.440984 84.27,77.99 C84.326925,77.8091564 84.3473205,77.6187984 84.33,77.43 C83.854999,77.5058825 83.4377688,77.7876958 83.19,78.2 Z"></path>
                        </g>
                        <path d="M5.42,21.1 C5.42,21.1 11.54,10.51 37.07,7.1 C62.78,3.68 80.7,15.46 111.49,10.78 C122.35,9.13 130.49,7.28 132.49,0.86 L150.66,81 C150.66,81 135.66,95.74 109.95,95.74 C84.24,95.74 59.49,82 23.06,105.61 L5.42,21.1 Z" id="Shape" fill="url(#linearGradient-5)"></path>
                        <path d="M5.34,20.75 C5.34,20.75 11.46,10.15 36.98,6.75 C62.7,3.33 80.61,15.11 111.41,10.43 C122.27,8.78 130.41,6.93 132.41,0.51 L150.54,80.64 C150.54,80.64 135.54,95.37 109.82,95.37 C84.1,95.37 59.41,81.68 23,105.26 L5.34,20.75 Z" id="Shape" fill="url(#linearGradient-6)"></path>
                        <path d="M4.72,17.3 C4.72,17.3 4.09,16.3 2.08,16.76 C0.07,17.22 0.32,18.39 0.32,18.39 L21.9360352,126.391846 C21.9360352,126.781846 22.8660352,127.231846 25.1160352,126.861846 C26.6260352,126.611846 27.2886685,125.717065 27.2760352,125.681846 L4.72,17.3 Z" id="Shape" fill="url(#linearGradient-7)"></path>
                        <path d="M20.53,105.38 C21.83,105.08 22.89,105.02 22.98,105.26 L5.36,20.54 C5.19,20.21 4.19,20.18 3.04,20.46 C1.89,20.74 0.92,21.3 1.04,21.67 L18.24,106.5 C18.19,106.25 19.22,105.69 20.53,105.38 Z" id="Shape" fill="url(#linearGradient-8)"></path>
                        <path d="M93.94,84.61 C93.94,84.61 91.06,86.55 89.52,86.03 C87.98,85.51 85.18,83.4 84.9,81.96 C84.62,80.52 84.8,80.24 84.99,80.07 C85.18,79.9 85.42,79.46 84.58,79.59 C84.1654191,79.63263 83.7537789,79.4856156 83.46,79.19 C83.22,79.57 83.01,79.88 82.98,79.94 C82.95,80 82.98,80.07 82.98,80.33 C82.9317027,80.5828729 82.8099671,80.8159098 82.63,81 C82.63,81.09 82.68,81.44 82.7,82 C82.72,82.56 82.7,83 82.54,83.13 C82.38,83.26 81.92,83.06 81.92,83.06 C81.92,83.06 81.38,84.12 81.19,84.52 C81.0001071,84.9283702 80.6300938,85.2243809 80.19,85.32 C79.82,85.32 79.73,85.01 79.57,85.11 C79.4304635,85.1661246 79.2800645,85.1900517 79.13,85.18 C79.9399819,86.4160846 80.4659276,87.8163299 80.67,89.28 C80.7484906,90.2784598 80.7484906,91.2815402 80.67,92.28 C85.44,92.83 90.08,93.55 94.67,94.16 C94.16,90.07 93.67,85.43 93.94,84.61 Z" id="Shape" fill="#231F20"></path>
                        <path d="M83.63,73.14 L83.74,73.34 C83.801973,73.4612988 83.8721354,73.5782361 83.95,73.69 C83.95,73.75 84.05,73.81 84.1,73.87 C84.2553812,74.0325723 84.3897629,74.2139876 84.5,74.41 C84.5942315,74.5597421 84.5942315,74.7502579 84.5,74.9 C84.3792423,75.1266232 84.3337133,75.3857879 84.37,75.64 C84.4219259,76.0886825 84.3456461,76.5428945 84.15,76.95 C84.1995659,77.0712197 84.2299305,77.1994258 84.24,77.33 C84.8960402,77.1687981 85.5655356,77.0683737 86.24,77.03 C88.33,76.85 93.32,76.28 94.18,76.67 L93.94,72.67 C92.0148834,73.6279227 89.9797501,74.3466001 87.88,74.81 C85.37,75.23 85.24,75.32 83.61,72.81 C83.5745542,72.9185531 83.5817038,73.0365221 83.63,73.14 Z" id="Shape" fill="#231F20"></path>
                        <path d="M83,72.27 L83.22,72.27 C83.1542562,72.1804865 83.0941403,72.0869729 83.04,71.99 C83.0066159,71.94911 82.9765218,71.9056408 82.95,71.86 C82.9415005,71.973174 82.9415005,72.086826 82.95,72.2 C82.9589074,72.2280024 82.9764001,72.2524922 83,72.27 Z" id="Shape" fill="#231F20"></path>
                        <path d="M41.9,89.74 C41.76,89.56 39.58,83.6 39.39,83.07 C39.0261908,83.4364573 38.6918226,83.8310117 38.39,84.25 C38.31,84.46 38.13,84.5 37.95,84.54 L37.82,84.54 C37.7288411,84.5694149 37.6463864,84.6209491 37.58,84.69 C37.4869337,84.7836053 37.3742117,84.8553375 37.25,84.9 C37.1422925,84.9646604 37.0077075,84.9646604 36.9,84.9 C36.8798656,84.9943526 36.8461832,85.0852951 36.8,85.17 C36.9798764,85.4053044 37.1435854,85.6525385 37.29,85.91 C37.3658455,86.0557501 37.4326387,86.2060348 37.49,86.36 C37.5318733,86.5043526 37.5996418,86.6398898 37.69,86.76 C37.7950512,86.8440448 37.9183549,86.9022716 38.05,86.93 C38.1854101,86.9646031 38.3163017,87.014946 38.44,87.08 C38.615792,87.1358036 38.7440628,87.2873963 38.77,87.47 C38.791194,87.5419641 38.817941,87.6121749 38.85,87.68 C38.9410737,87.8951432 39.065986,88.0943278 39.22,88.27 C39.2440874,88.2991269 39.2708731,88.3259126 39.3,88.35 L39.38,88.4 C39.52,88.47 39.89,88.66 40.18,88.84 L40.34,88.95 L40.47,89.05 L40.92,89.42 L41.01,89.49 L41.09,89.55 L41.15,89.6 L41.22,89.65 L41.29,89.65 L41.38,89.65 L41.58,89.65 L41.75,89.65 L41.9,89.74 Z" id="Shape" fill="#231F20"></path>
                        <path d="M128.27,92.71 L127.85,92.06 C127.24,91.06 127.52,87.23 127.52,87.23 C129.52,86.23 129.63,84.23 130.28,82.02 C130.93,79.81 130,69.7 129.94,66.81 C129.857636,62.635131 129.290501,58.4839674 128.25,54.44 C126.94,49.44 120.9,45.61 119.25,44.01 C117.6,42.41 114.25,37.4 113.57,36.46 C112.89,35.52 113.7,32.46 114.78,29.46 C115.891698,26.0047529 115.611867,22.2521515 114,19 C112.34,15.77 109.34,14.86 107.54,14 C105.74,13.14 97.63,13.81 94.79,16 C91.95,18.19 94.4,21.18 94.33,21.29 C91.9,24.83 93.33,27.09 93.33,28.29 C93.33,29.49 91.98,31.17 91.86,32.81 C91.74,34.45 93.99,32.94 93.99,33.47 C93.9324853,33.9645053 94.1715293,34.4465119 94.6,34.7 C95.0129715,35.1456859 95.3265587,35.6740123 95.52,36.25 C94.97,36.35 95.52,37.48 95.4,39.25 C95.28,41.02 96.82,41.48 99.31,41.61 C101.8,41.74 102.11,42.61 102.24,43.73 C102.467153,44.5738883 102.209366,45.4742177 101.57,46.07 C100.270289,47.2941976 99.0573587,48.6073705 97.94,50 C96.8,51.4 95.23,56.78 94.48,57.62 C93.73,58.46 93.68,59.48 92.54,60.04 C91.5041597,60.433222 90.6354152,61.1713016 90.08,62.13 C89.69,63.03 88.48,62.08 87.75,61.03 C87.02,59.98 86.75,59.32 85.9,58.26 C85.05,57.2 84.65,54.84 84.08,53.64 C83.5464132,52.1740533 83.7276344,50.5430631 84.57,49.23 C84.803338,48.8434247 84.8722741,48.3795489 84.7614343,47.9418256 C84.6505945,47.5041024 84.3691975,47.1289376 83.98,46.9 L85.12,46.45 C86.99,46.45 88.52,45.33 88.37,43.52 C88.3755266,42.5295361 87.9119199,41.594905 87.12,41 C84.94,39.57 83.12,41.56 82.77,42.12 C82.42,42.68 82.06,42.35 82.06,42.35 C81.5275775,41.6233541 80.6442001,41.2409396 79.75,41.35 C78.81,41.53 79.47,42.87 79.47,42.87 C78.4907443,42.6036567 77.4724986,43.1411856 77.14,44.1 C76.80805,44.0667274 76.476955,44.1708438 76.2237902,44.3881121 C75.9706254,44.6053803 75.8174784,44.9168448 75.8,45.25 C75.8,45.25 75.73,44.94 74.97,45.39 C74.21,45.84 74.87,47.52 74.87,47.52 C74.87,47.52 69.87,50.98 68.58,51.59 C67.29,52.2 67.46,52.89 66.7,53.3 C65.94,53.71 65.5,54.15 66,55.15 C66.5,56.15 67.08,55.87 68,55.51 C68.4490237,55.2536544 68.9533256,55.1095681 69.47,55.09 C70.47,54.97 76.06,51.44 76.06,51.44 C76.1668245,52.0178393 76.3877995,52.568577 76.71,53.06 C76.71,53.06 73.96,57.2 73.81,58 C73.7,58.57 77.5,63.93 80.44,68.1 C81.3581036,68.4369891 82.2209009,68.9088313 83,69.5 C83.1830858,70.194808 83.1830858,70.925192 83,71.62 L83.05,71.44 L82.99,71.8 L82.99,71.86 C83.0165218,71.9056408 83.0466159,71.94911 83.08,71.99 C83.1341403,72.0869729 83.1942562,72.1804865 83.26,72.27 C83.26,72.27 83.26,72.27 83.26,72.27 C83.3584992,72.2526003 83.4585468,72.2910801 83.52,72.37 C83.5710657,72.4328375 83.602382,72.5093885 83.61,72.59 C83.6196211,72.6663648 83.6196211,72.7436352 83.61,72.82 C85.24,75.3 85.37,75.21 87.88,74.82 C89.9797501,74.3566001 92.0148834,73.6379227 93.94,72.68 L94.18,76.68 C93.32,76.29 88.33,76.86 86.24,77.04 C85.5655356,77.0783737 84.8960402,77.1787981 84.24,77.34 C84.2675668,77.532036 84.2469482,77.727913 84.18,77.91 C83.98324,78.3607876 83.7455794,78.7925936 83.47,79.2 C83.7637789,79.4956156 84.1754191,79.64263 84.59,79.6 C85.43,79.47 85.19,79.92 85,80.08 C84.81,80.24 84.63,80.52 84.91,81.97 C85.19,83.42 87.98,85.52 89.53,86.04 C91.08,86.56 93.95,84.62 93.95,84.62 C93.68,85.44 94.17,90.08 94.67,94.18 C99.7047876,94.9150023 104.782338,95.319202 109.87,95.39 C116.100531,95.3893558 122.298149,94.4866593 128.27,92.71 Z" id="Shape" fill="#231F20"></path>
                        <path d="M80.63,89.3 C80.4259276,87.8363299 79.8999819,86.4360846 79.09,85.2 C79.2400645,85.2100517 79.3904635,85.1861246 79.53,85.13 C79.69,85.03 79.78,85.36 80.15,85.34 C80.5900938,85.2443809 80.9601071,84.9483702 81.15,84.54 C81.34,84.14 81.88,83.08 81.88,83.08 C81.88,83.08 82.34,83.32 82.5,83.15 C82.66,82.98 82.68,82.7 82.66,82.02 C82.64,81.34 82.6,81.11 82.59,81.02 C82.7699671,80.8359098 82.8917027,80.6028729 82.94,80.35 C82.94,80.09 82.94,79.99 82.94,79.96 C82.94,79.93 83.18,79.59 83.42,79.21 C83.0671485,78.9746923 82.91557,78.5322467 83.05,78.13 C83.3015474,77.7194855 83.7162429,77.4357465 84.19,77.35 C84.1799305,77.2194258 84.1495659,77.0912197 84.1,76.97 C84.2956461,76.5628945 84.3719259,76.1086825 84.32,75.66 C84.2837133,75.4057879 84.3292423,75.1466232 84.45,74.92 C84.5442315,74.7702579 84.5442315,74.5797421 84.45,74.43 C84.3397629,74.2339876 84.2053812,74.0525723 84.05,73.89 C84.05,73.83 83.94,73.77 83.9,73.71 C83.8221354,73.5982361 83.751973,73.4812988 83.69,73.36 L83.58,73.16 C83.5479984,73.0659819 83.5479984,72.9640181 83.58,72.87 L83.21,72.3 L83,72.3 C82.9595267,72.2954958 82.9230205,72.2735921 82.9,72.24 C82.8915005,72.126826 82.8915005,72.013174 82.9,71.9 C82.29,70.98 81.36,69.64 80.31,68.14 C78.42,67.31 76.17,66.43 76.06,66.4 C75.687139,66.3256386 75.3290335,66.1905044 75,66 C74.6629688,65.7296276 74.2246146,65.620039 73.8,65.7 C73.4455294,65.7559742 73.0844706,65.7559742 72.73,65.7 C72.8656524,65.4545471 72.9570465,65.1871348 73,64.91 C73.12,64.35 73,64.26 73,64.26 C73.415633,64.2034836 73.7193603,63.8390108 73.7,63.42 C73.7,62.63 73.95,61.88 73.64,61.7 C73.553662,61.6385659 73.4545033,61.5975347 73.35,61.58 C73.4267991,60.6845056 73.355853,59.7824768 73.14,58.91 C71.89,56.04 65.96,56.78 65.77,60.02 C65.656179,60.9037828 65.7948585,61.8017326 66.17,62.61 C66.17,62.61 65.87,62.7 66.17,63.61 C66.281326,64.1197736 66.534373,64.5877373 66.9,64.96 C67.02,65.06 67.32,64.87 67.32,64.87 C67.3841242,65.1479472 67.4745311,65.4191677 67.59,65.68 C67.6769275,65.8512075 67.7279706,66.0383657 67.74,66.23 L67.74,66.31 C67.7424186,66.3432895 67.7424186,66.3767105 67.74,66.41 C67.6528567,66.6354386 67.5239319,66.8423969 67.36,67.02 L66.76,67.57 C66.69,67.57 66.38,67.5 66.26,67.68 C66.2107528,67.7392018 66.1369699,67.7724041 66.06,67.77 C65.62,66.89 65.12,66.2 64.7,66.19 C64.0411836,66.1162011 63.3991521,65.933729 62.8,65.65 C62.9924376,65.3720834 63.0587311,65.0258913 62.9825809,64.696542 C62.9064308,64.3671926 62.6949009,64.0852372 62.4,63.92 C61.3,63.23 60.7,62.98 61.01,61.86 C61.32,60.74 60.91,59.97 60.49,58.62 C60.07,57.27 58.88,53.1 56.05,53.41 C54.295477,53.7573735 52.9848008,55.2272908 52.84,57.01 C52.68,58.61 52.38,58.53 52.48,59.39 C52.58,60.25 52.35,61.22 52.34,62.63 C52.478313,63.742792 52.2687175,64.8711146 51.74,65.86 C51.386217,66.3471446 51.2454606,66.9570887 51.35,67.55 C50.7068755,67.6757758 50.0971598,67.9346495 49.56,68.31 C49.5033232,68.2715207 49.4380943,68.247489 49.37,68.24 C49.4467991,67.3445056 49.375853,66.4424768 49.16,65.57 C47.9,62.7 41.97,63.44 41.79,66.68 C41.676179,67.5637828 41.8148585,68.4617326 42.19,69.27 C42.19,69.27 41.89,69.36 42.19,70.27 C42.301326,70.7797736 42.554373,71.2477373 42.92,71.62 C43.04,71.72 43.34,71.53 43.34,71.53 C43.4041242,71.8079472 43.4945311,72.0791677 43.61,72.34 C43.6969275,72.5112075 43.7479706,72.6983657 43.76,72.89 L43.76,72.97 C43.7624186,73.0032895 43.7624186,73.0367105 43.76,73.07 C43.6681933,73.2953665 43.5360281,73.5020864 43.37,73.68 C43.09,73.95 42.83,74.19 42.77,74.23 C42.71,74.27 42.39,74.16 42.28,74.34 C42.17,74.52 42.11,74.43 41.97,74.44 C41.7547634,74.4371058 41.544338,74.5037405 41.37,74.63 C41.0041849,74.8338829 40.6145618,74.9917474 40.21,75.1 C39.3950698,75.3270738 38.6146447,75.6634639 37.89,76.1 C37.1916951,76.8152575 36.546641,77.5806327 35.96,78.39 C35.468896,79.0703668 34.9344551,79.7183764 34.36,80.33 C33.9591521,80.7254975 33.6487044,81.2031093 33.45,81.73 C33.2890437,82.1020602 33.0913999,82.457149 32.86,82.79 C32.37,83.43 32.62,83.47 32.76,83.45 C32.5210772,83.7251519 32.4086095,84.087951 32.45,84.45 C32.4669902,84.554664 32.4903672,84.6581907 32.52,84.76 C32.56,84.88 32.6,85.01 32.64,85.15 C32.8707482,85.9100582 33.2073873,86.6338323 33.64,87.3 C33.78,87.48 33.89,87.64 34,87.8 C34.1522921,88.2464837 34.3977107,88.6555146 34.72,89 C34.97,89.16 35.27,89.37 35.56,89.58 C36.0772682,89.9856731 36.6454315,90.3218644 37.25,90.58 C37.3095742,90.5955301 37.3667634,90.6190786 37.42,90.65 L37.68,90.82 C38.1786617,91.2072646 38.6560248,91.6212018 39.11,92.06 C39.133562,92.1241974 39.1798033,92.1775527 39.24,92.21 C39.2925982,92.2403676 39.3574018,92.2403676 39.41,92.21 C39.5806396,92.3789285 39.776263,92.5205869 39.99,92.63 C40.3536432,92.8002212 40.6905209,93.0225604 40.99,93.29 C41.2999978,93.6133055 41.6952673,93.8421458 42.13,93.95 C42.39,93.95 42.47,93.64 42.47,93.64 L42.78,93.73 L42.72,95.41 C56.72,90.59 69.03,90.9 80.61,92.25 C80.6925507,91.2686456 80.6992372,90.2823835 80.63,89.3 Z M41.9,89.77 L41.73,89.77 L41.53,89.77 L41.44,89.77 L41.37,89.77 L41.3,89.72 L41.24,89.67 L41.16,89.61 L41.07,89.54 L40.62,89.17 L40.49,89.07 L40.33,88.96 C40.04,88.78 39.67,88.59 39.53,88.52 L39.45,88.47 C39.4208731,88.4459126 39.3940874,88.4191269 39.37,88.39 C39.215986,88.2143278 39.0910737,88.0151432 39,87.8 C38.967941,87.7321749 38.941194,87.6619641 38.92,87.59 C38.8940628,87.4073963 38.765792,87.2558036 38.59,87.2 C38.4663017,87.134946 38.3354101,87.0846031 38.2,87.05 C38.0683549,87.0222716 37.9450512,86.9640448 37.84,86.88 C37.7496418,86.7598898 37.6818733,86.6243526 37.64,86.48 C37.5826387,86.3260348 37.5158455,86.1757501 37.44,86.03 C37.2935854,85.7725385 37.1298764,85.5253044 36.95,85.29 C36.9961832,85.2052951 37.0298656,85.1143526 37.05,85.02 C37.1577075,85.0846604 37.2922925,85.0846604 37.4,85.02 C37.5242117,84.9753375 37.6369337,84.9036053 37.73,84.81 C37.7963864,84.7409491 37.8788411,84.6894149 37.97,84.66 L38.1,84.66 C38.28,84.66 38.46,84.58 38.54,84.37 C38.8418226,83.9510117 39.1761908,83.5564573 39.54,83.19 C39.73,83.72 41.91,89.68 42.05,89.86 L41.9,89.77 Z" id="Shape" fill="#231F20"></path>
                        <path d="M83,71.87 L83,71.81 L83.06,71.45 L83.01,71.63 C83.1930858,70.935192 83.1930858,70.204808 83.01,69.51 C82.2309009,68.9188313 81.3681036,68.4469891 80.45,68.11 C81.45,69.61 82.45,70.95 83.04,71.87 L83,71.87 Z" id="Shape" fill="#231F20"></path>
                        <path d="M83.62,72.83 C83.6296211,72.7536352 83.6296211,72.6763648 83.62,72.6 C83.612382,72.5193885 83.5810657,72.4428375 83.53,72.38 C83.4685468,72.3010801 83.3684992,72.2626003 83.27,72.28 C83.27,72.28 83.27,72.28 83.27,72.28 L83.64,72.85 L83.62,72.83 Z" id="Shape" fill="#231F20"></path>
                        <path d="M83.09,78.11 C82.95557,78.5122467 83.1071485,78.9546923 83.46,79.19 C83.7355794,78.7825936 83.97324,78.3507876 84.17,77.9 C84.2369482,77.717913 84.2575668,77.522036 84.23,77.33 C83.7562429,77.4157465 83.3415474,77.6994855 83.09,78.11 Z" id="Shape" fill="#231F20"></path>
                    </g>
                </g>
            </g>
        </g>
    </g>
</svg>