<?xml version="1.0" encoding="UTF-8"?>
<svg width="195px" height="195px" viewBox="0 0 195 195" version="1.1" xmlns="http://www.w3.org/2000/svg" xmlns:xlink="http://www.w3.org/1999/xlink">
    <!-- Generator: Sketch 50.2 (55047) - http://www.bohemiancoding.com/sketch -->
    <title>Innovative-Planning-Path</title>
    <desc>Created with Sketch.</desc>
    <defs>
        <linearGradient x1="50.5845344%" y1="99.9890205%" x2="49.4326426%" y2="-0.00434495601%" id="linearGradient-1">
            <stop stop-color="#EDBC46" offset="0%"></stop>
            <stop stop-color="#EDA44C" offset="27%"></stop>
            <stop stop-color="#C48031" offset="61%"></stop>
            <stop stop-color="#D89D3B" offset="80%"></stop>
            <stop stop-color="#FFED95" offset="100%"></stop>
        </linearGradient>
        <linearGradient x1="0.00685164416%" y1="49.9992691%" x2="99.9999997%" y2="49.9992691%" id="linearGradient-2">
            <stop stop-color="#EDBC46" offset="0%"></stop>
            <stop stop-color="#EDA44C" offset="27%"></stop>
            <stop stop-color="#C48031" offset="61%"></stop>
            <stop stop-color="#D89D3B" offset="80%"></stop>
            <stop stop-color="#FFED95" offset="100%"></stop>
        </linearGradient>
        <radialGradient cx="48.8271995%" cy="50.7183203%" fx="48.8271995%" fy="50.7183203%" r="49.9455967%" id="radialGradient-3">
            <stop stop-color="#7D1416" offset="0%"></stop>
            <stop stop-color="#981819" offset="9%"></stop>
            <stop stop-color="#C61F1F" offset="26%"></stop>
            <stop stop-color="#E22323" offset="39%"></stop>
            <stop stop-color="#ED2524" offset="46%"></stop>
            <stop stop-color="#EC1E24" offset="87%"></stop>
            <stop stop-color="#DB1C22" offset="89%"></stop>
            <stop stop-color="#A41619" offset="94%"></stop>
            <stop stop-color="#811214" offset="98%"></stop>
            <stop stop-color="#741112" offset="100%"></stop>
        </radialGradient>
        <radialGradient cx="48.7409443%" cy="50%" fx="48.7409443%" fy="50%" r="50%" id="radialGradient-4">
            <stop stop-color="#5E0000" offset="0%"></stop>
            <stop stop-color="#5E0000" offset="61%"></stop>
            <stop stop-color="#5E0000" offset="87%"></stop>
            <stop stop-color="#BE1E2D" offset="100%"></stop>
        </radialGradient>
        <linearGradient x1="1.36354246%" y1="61.3864222%" x2="98.2852421%" y2="34.5459754%" id="linearGradient-5">
            <stop stop-color="#4D1211" offset="0%"></stop>
            <stop stop-color="#521312" offset="2%"></stop>
            <stop stop-color="#601414" offset="4%"></stop>
            <stop stop-color="#781718" offset="6%"></stop>
            <stop stop-color="#991B1D" offset="8%"></stop>
            <stop stop-color="#C32024" offset="11%"></stop>
            <stop stop-color="#D82327" offset="12%"></stop>
            <stop stop-color="#AE524F" offset="29%"></stop>
            <stop stop-color="#912829" offset="43%"></stop>
            <stop stop-color="#851719" offset="50%"></stop>
            <stop stop-color="#D52427" offset="78%"></stop>
        </linearGradient>
        <linearGradient x1="1.36363636%" y1="61.4150673%" x2="98.292011%" y2="34.5650721%" id="linearGradient-6">
            <stop stop-color="#006D92" offset="0%"></stop>
            <stop stop-color="#007295" offset="4%"></stop>
            <stop stop-color="#00809F" offset="7%"></stop>
            <stop stop-color="#0098AF" offset="11%"></stop>
            <stop stop-color="#0099B0" offset="12%"></stop>
            <stop stop-color="#6AC9C8" offset="29%"></stop>
            <stop stop-color="#3FB5BE" offset="37%"></stop>
            <stop stop-color="#11A1B4" offset="46%"></stop>
            <stop stop-color="#0099B0" offset="50%"></stop>
            <stop stop-color="#006D92" offset="70%"></stop>
        </linearGradient>
        <linearGradient x1="38.5903739%" y1="50.5288596%" x2="64.5007461%" y2="49.241944%" id="linearGradient-7">
            <stop stop-color="#9F1D21" offset="0%"></stop>
            <stop stop-color="#A21E21" offset="12%"></stop>
            <stop stop-color="#994845" offset="29%"></stop>
            <stop stop-color="#7F2222" offset="60%"></stop>
            <stop stop-color="#731112" offset="78%"></stop>
            <stop stop-color="#761213" offset="85%"></stop>
            <stop stop-color="#811517" offset="90%"></stop>
            <stop stop-color="#931A1C" offset="96%"></stop>
            <stop stop-color="#A21E21" offset="99%"></stop>
        </linearGradient>
    </defs>
    <g id="Page-1" stroke="none" stroke-width="1" fill="none" fill-rule="evenodd">
        <g id="Toastmasters-Pathways-Infographic" transform="translate(-702.000000, -6218.000000)" fill-rule="nonzero">
            <g id="10-Paths" transform="translate(0.000000, 4217.000000)">
                <g id="Innovative-Planning-Path" transform="translate(700.000000, 1999.000000)">
                    <circle id="Oval" fill="url(#linearGradient-1)" transform="translate(99.506626, 99.499563) rotate(-89.340000) translate(-99.506626, -99.499563) " cx="99.5066259" cy="99.4995632" r="97.5"></circle>
                    <path d="M192.25,99.49 C192.25,137.004783 169.651106,170.825431 134.991578,185.180783 C100.332051,199.536135 60.4378379,191.599005 33.9123104,165.070618 C7.38678298,138.54223 -0.546044802,98.6471613 13.8130438,63.989182 C28.1721324,29.3312027 61.995217,6.73595528 99.51,6.74 C124.10791,6.73999986 147.698207,16.5121659 165.090619,33.9064526 C182.48303,51.3007392 192.252652,74.8920902 192.25,99.49 Z" id="Shape" fill="url(#linearGradient-2)"></path>
                    <circle id="Oval" fill="url(#radialGradient-3)" cx="99.29" cy="99.71" r="88.23"></circle>
                    <circle id="Oval" fill="url(#radialGradient-4)" transform="translate(100.819052, 98.830348) rotate(-89.640000) translate(-100.819052, -98.830348) " cx="100.819052" cy="98.8303476" r="77.38"></circle>
                    <g id="Group" transform="translate(26.000000, 45.000000)">
                        <g opacity="0.75" style="mix-blend-mode: multiply;" transform="translate(5.000000, 5.000000)" fill="#231F20" id="Shape">
                            <path d="M6,20.69 C6,20.69 12.11,10.1 37.64,6.69 C63.36,3.27 81.27,15.05 112.07,10.37 C122.93,8.72 131.02,6.87 133.07,0.45 L151.21,80.57 C151.21,80.57 136.21,95.31 110.49,95.31 C84.77,95.31 60.04,81.61 23.61,105.18 L6,20.69 Z"></path>
                            <path d="M5.94,20.34 C5.94,20.34 12.05,9.74 37.58,6.34 C63.29,2.93 81.21,14.71 112,10 C122.87,8.35 131,6.5 133,0.08 L151.13,80.21 C151.13,80.21 136.17,95 110.46,95 C84.75,95 60,81.27 23.58,104.85 L5.94,20.34 Z"></path>
                            <path d="M5.31,16.89 C5.31,16.89 4.69,15.89 2.68,16.35 C0.67,16.81 0.91,18 0.91,18 L19.785614,120.890961 C19.785614,121.280961 20.5017908,121.260961 22.7417908,120.890961 C24.2517908,120.640961 24.9217908,120.210961 24.9217908,119.820961 L5.31,16.89 Z"></path>
                            <path d="M21.13,105 C22.42,104.7 23.48,104.64 23.58,104.88 L6,20.13 C5.82,19.81 4.82,19.77 3.67,20.05 C2.52,20.33 1.55,20.9 1.67,21.26 L18.95,106.08 C18.78,105.84 19.81,105.28 21.13,105 Z"></path>
                            <path d="M71.18,23.89 L69.78,23.89 L69.78,25 L71.05,25 C71.1219079,24.6339084 71.165371,24.2628 71.18,23.89 Z"></path>
                            <path d="M69.78,27.15 C70.3423484,26.7978958 70.7416666,26.2366918 70.89,25.59 L69.78,25.59 L69.78,27.15 Z"></path>
                            <path d="M71.05,22.19 L69.78,22.19 L69.78,23.28 L71.18,23.28 C71.1655564,22.9138008 71.1220868,22.5493243 71.05,22.19 Z"></path>
                            <path d="M70.93,26.9 C71.5643768,26.6211815 72.1056945,26.1666134 72.49,25.59 L71.49,25.59 C71.3757363,26.0541883 71.1865908,26.4966538 70.93,26.9 Z"></path>
                            <path d="M71.67,25 L72.82,25 C72.9608063,24.6511702 73.0517018,24.2842217 73.09,23.91 L71.79,23.91 C71.771428,24.2753736 71.7313586,24.6393368 71.67,25 Z"></path>
                            <path d="M69.78,20 L69.78,21.55 L70.89,21.55 C70.7455075,20.9041837 70.3448875,20.3447593 69.78,20 Z"></path>
                            <path d="M70.93,20.26 C71.1971123,20.6613917 71.3964356,21.103957 71.52,21.57 L72.52,21.57 C72.1276335,20.9889443 71.5753898,20.5339511 70.93,20.26 Z"></path>
                            <path d="M71.79,23.28 L73.09,23.28 C73.0534725,22.9054721 72.9625152,22.5382741 72.82,22.19 L71.67,22.19 C71.7324677,22.5505071 71.7725445,22.9145375 71.79,23.28 Z"></path>
                            <path d="M67.27,22.19 L66.12,22.19 C65.9774848,22.5382741 65.8865275,22.9054721 65.85,23.28 L67.16,23.28 C67.1693507,22.9144267 67.2061206,22.5500704 67.27,22.19 Z"></path>
                            <path d="M67.16,23.89 L65.85,23.89 C65.8864299,24.2710122 65.977357,24.6448234 66.12,25 L67.27,25 C67.2061583,24.6331987 67.1693924,24.2621971 67.16,23.89 Z"></path>
                            <path d="M68,20.26 C67.3656232,20.5388185 66.8243055,20.9933866 66.44,21.57 L67.44,21.57 C67.5542637,21.1058117 67.7434092,20.6633462 68,20.26 Z"></path>
                            <path d="M66.45,25.59 C66.8316121,26.1651502 67.3692945,26.6195786 68,26.9 C67.7328877,26.4986083 67.5335644,26.056043 67.41,25.59 L66.45,25.59 Z"></path>
                            <path d="M69.17,27.15 L69.17,25.59 L68.05,25.59 C68.1976251,26.2397864 68.6015255,26.8023619 69.17,27.15 Z"></path>
                            <path d="M68.05,21.57 L69.17,21.57 L69.17,20 C68.5944196,20.3446356 68.1885407,20.9135908 68.05,21.57 Z"></path>
                            <path d="M77.59,13.18 C66.9444218,13.7084058 57.9228026,21.194517 55.44,31.56 L77.59,31.56 L77.59,13.18 Z M69.47,27.82 C67.7550801,27.82 66.2090222,26.7869572 65.5527508,25.2025778 C64.8964793,23.6181983 65.2592357,21.7944988 66.4718672,20.5818672 C67.6844988,19.3692357 69.5081983,19.0064793 71.0925778,19.6627508 C72.6769572,20.3190222 73.71,21.8650801 73.71,23.58 C73.71,25.9216873 71.8116873,27.82 69.47,27.82 Z"></path>
                            <path d="M67.89,25 L69.17,25 L69.17,23.89 L67.77,23.89 C67.7814881,24.262529 67.8216063,24.633623 67.89,25 Z"></path>
                            <path d="M67.77,23.28 L69.17,23.28 L69.17,22.19 L67.89,22.19 C67.8215587,22.5496364 67.7814357,22.9140877 67.77,23.28 Z"></path>
                            <path d="M77.59,33.61 L55.05,33.61 C54.0044383,40.936164 56.4336483,48.3310196 61.62,53.61 L77.62,53.61 L77.59,33.61 Z M63.52,46.88 L61.66,46.88 L61.66,41.5 L63.52,41.5 L63.52,46.88 Z M66.14,46.88 L64.28,46.88 L64.28,43 L66.14,43 L66.14,46.88 Z M68.76,46.88 L66.9,46.88 L66.9,40.64 L68.76,40.64 L68.76,46.88 Z M71.37,46.88 L69.52,46.88 L69.52,38.69 L71.37,38.69 L71.37,46.88 Z"></path>
                            <path d="M67.86,72.17 C67.8655017,73.1822965 68.6876885,74.000015 69.7,74 L77.59,74 L77.59,55.72 L63.42,55.72 C66.2857707,59.4490701 67.8458873,64.016979 67.86,68.72 L67.86,72.17 Z M69.47,59.87 C69.47,59.3674209 69.8774209,58.96 70.38,58.96 L74.38,58.96 C74.8825791,58.96 75.29,59.3674209 75.29,59.87 L75.29,65.42 C75.29,65.9225791 74.8825791,66.33 74.38,66.33 L70.38,66.33 C69.8774209,66.33 69.47,65.9225791 69.47,65.42 L69.47,59.87 Z"></path>
                            <path d="M70.38,65.65 L74.38,65.65 C74.5070255,65.65 74.61,65.5470255 74.61,65.42 L74.61,59.87 C74.6100621,59.8098777 74.585516,59.7523493 74.5420691,59.7107914 C74.4986222,59.6692335 74.4400602,59.6472671 74.38,59.65 L70.38,59.65 C70.2584974,59.65 70.16,59.7484974 70.16,59.87 L70.16,65.42 C70.1572671,65.4800602 70.1792335,65.5386222 70.2207914,65.5820691 C70.2623493,65.625516 70.3198777,65.6500621 70.38,65.65 Z M70.76,60.42 L73.1,60.42 L73.1,61.11 L70.76,61.11 L70.76,60.42 Z M70.76,61.68 L74,61.68 L74,62.36 L70.8,62.36 L70.76,61.68 Z M70.76,62.93 L74,62.93 L74,63.62 L70.8,63.62 L70.76,62.93 Z"></path>
                            <path d="M79.65,13.18 L79.65,31.56 L101.82,31.56 C99.3833208,21.1577535 90.3236222,13.6468261 79.65,13.18 Z M93.51,22.8 C93.9598409,22.7959472 94.3676462,23.0638053 94.5426083,23.4782465 C94.7175705,23.8926877 94.6250879,24.3717494 94.308432,24.691284 C93.9917761,25.0108185 93.513571,25.1076327 93.0975634,24.9364282 C92.6815559,24.7652237 92.4100183,24.3598592 92.41,23.91 C92.4099753,23.300848 92.9008728,22.8054879 93.51,22.8 Z M88.84,21.12 C89.7203634,21.187871 90.4000962,21.9220242 90.4000962,22.805 C90.4000962,23.6879758 89.7203634,24.422129 88.84,24.49 C88.2070203,24.5387991 87.6000883,24.228737 87.2686642,23.687255 C86.9372402,23.145773 86.9372402,22.464227 87.2686642,21.922745 C87.6000883,21.381263 88.2070203,21.0712009 88.84,21.12 Z M84.16,22.8 C84.7730361,22.8 85.27,23.2969639 85.27,23.91 C85.27,24.5230361 84.7730361,25.02 84.16,25.02 C83.5469639,25.02 83.05,24.5230361 83.05,23.91 C83.05,23.2969639 83.5469639,22.8 84.16,22.8 Z M82.4,26 C82.4054778,25.528945 82.7889131,25.1499682 83.26,25.15 L85.06,25.15 C85.529442,25.15 85.91,25.530558 85.91,26 L82.4,26 Z M86.17,26 C86.17,25.2820298 86.7520298,24.7 87.47,24.7 L90.2,24.7 C90.9179702,24.7 91.5,25.2820298 91.5,26 L86.17,26 Z M91.76,26 C91.7599843,25.7728226 91.850909,25.5550924 92.0124843,25.3953959 C92.1740596,25.2356994 92.3928383,25.1473273 92.62,25.15 L94.41,25.15 C94.6371617,25.1473273 94.8559404,25.2356994 95.0175157,25.3953959 C95.179091,25.5550924 95.2700157,25.7728226 95.27,26 L91.76,26 Z"></path>
                            <path d="M79.65,74 L87.54,74 C88.5562039,74 89.38,73.1762039 89.38,72.16 L89.38,68.87 C89.394298,64.1131301 90.9641107,59.491489 93.85,55.71 L79.65,55.71 L79.65,74 Z M82.82,62 C82.9934203,62.0030834 83.1640703,62.0440394 83.32,62.12 C83.4230218,61.1212315 84.292696,60.3796975 85.2951931,60.4358373 C86.2976902,60.4919771 87.0791347,61.3259738 87.07,62.33 C87.5891476,62.3300001 88.0099999,62.7508524 88.0099999,63.27 C88.0099999,63.7891476 87.5891476,64.2099999 87.07,64.21 L82.82,64.21 C82.4001231,64.2499882 81.9938603,64.048555 81.7715185,63.6901422 C81.5491767,63.3317294 81.5491767,62.8782706 81.7715185,62.5198578 C81.9938603,62.161445 82.4001231,61.9600118 82.82,62 Z"></path>
                            <path d="M89.6,44.44 C89.5527864,44.5029515 89.4786893,44.54 89.4,44.54 C89.3213107,44.54 89.2472136,44.5029515 89.2,44.44 L88.11,43.19 L85.84,45.81 C85.9855923,45.9059058 86.1556701,45.9579705 86.33,45.96 L92.47,45.96 C92.6470077,45.9551504 92.8195534,45.9033867 92.97,45.81 L90.69,43.19 L89.6,44.44 Z"></path>
                            <path d="M91,42.78 L93.28,45.41 C93.3402549,45.2888875 93.37109,45.155269 93.37,45.02 L93.37,40.55 C93.3711744,40.4115181 93.3403753,40.2746332 93.28,40.15 L91,42.78 Z"></path>
                            <path d="M102.2,33.61 L79.65,33.61 L79.65,53.67 L95.65,53.67 L95.72,53.59 C100.038791,49.1486165 102.450392,43.1949767 102.44,37 C102.442591,35.8656656 102.362377,34.7326552 102.2,33.61 Z M93.94,45 C93.94,45.8118586 93.2818586,46.47 92.47,46.47 L86.33,46.47 C85.5181414,46.47 84.86,45.8118586 84.86,45 L84.86,40.55 C84.857336,40.158402 85.0110337,39.7819276 85.2870015,39.5040825 C85.5629692,39.2262375 85.9383929,39.0699909 86.33,39.07 L92.47,39.07 C92.8616071,39.0699909 93.2370308,39.2262375 93.5129985,39.5040825 C93.7889663,39.7819276 93.942664,40.158402 93.94,40.55 L93.94,45 Z"></path>
                            <path d="M93,39.75 C92.8485672,39.6601234 92.6760862,39.6118287 92.5,39.61 L86.36,39.61 C86.1866666,39.6090469 86.0166664,39.6576183 85.87,39.75 L89.43,43.86 L93,39.75 Z"></path>
                            <path d="M85.48,40.15 C85.4276874,40.2768963 85.4005178,40.4127447 85.4,40.55 L85.4,45 C85.4002577,45.134048 85.4274635,45.2666759 85.48,45.39 L87.76,42.76 L85.48,40.15 Z"></path>
                            <path d="M87.78,75.14 L69.46,75.14 C68.5652987,75.14 67.84,75.8652987 67.84,76.76 C67.84,77.6547013 68.5652987,78.38 69.46,78.38 L87.78,78.38 C88.6747013,78.38 89.4,77.6547013 89.4,76.76 C89.4,75.8652987 88.6747013,75.14 87.78,75.14 Z"></path>
                            <path d="M87.78,79.51 L69.46,79.51 C68.5652987,79.51 67.84,80.2352987 67.84,81.13 C67.84,82.0247013 68.5652987,82.75 69.46,82.75 L87.78,82.75 C88.6747013,82.75 89.4,82.0247013 89.4,81.13 C89.4,80.2352987 88.6747013,79.51 87.78,79.51 Z"></path>
                            <path d="M84.67,83.88 L72.23,83.88 C71.3352987,83.88 70.61,84.6052987 70.61,85.5 C70.61,86.3947013 71.3352987,87.12 72.23,87.12 L84.67,87.12 C85.5647013,87.12 86.29,86.3947013 86.29,85.5 C86.29,84.6052987 85.5647013,83.88 84.67,83.88 Z"></path>
                        </g>
                        <path d="M5.92,20.6 C5.92,20.6 12,10 37.57,6.61 C63.28,3.2 81.2,15 112,10.3 C122.86,8.65 131,6.79 133,0.38 L151.13,80.5 C151.13,80.5 136.13,95.23 110.42,95.23 C84.71,95.23 60,81.54 23.56,105.11 L5.92,20.6 Z" id="Shape" fill="url(#linearGradient-5)"></path>
                        <path d="M5.84,20.24 C5.84,20.24 11.96,9.65 37.48,6.24 C63.2,2.82 81.11,14.6 111.91,9.92 C122.77,8.27 130.91,6.42 132.91,0 L151.04,80.12 C151.04,80.12 136.04,94.86 110.32,94.86 C84.6,94.86 59.87,81.16 23.44,104.73 L5.84,20.24 Z" id="Shape" fill="url(#linearGradient-6)"></path>
                        <path d="M5.22,16.8 C5.22,16.8 4.59,15.8 2.58,16.25 C0.57,16.7 0.82,17.89 0.82,17.89 L22.14646,126.365991 C22.14646,126.755991 23.07646,127.205991 25.32646,126.835991 C26.83646,126.585991 27.49646,126.155991 27.49646,125.765991 C27.497542,125.747955 20.0720553,89.4259575 5.22,16.8 Z" id="Shape" fill="url(#linearGradient-7)"></path>
                        <path d="M21,104.88 C22.3,104.58 23.36,104.51 23.45,104.75 L5.86,20 C5.69,19.68 4.69,19.64 3.54,19.93 C2.39,20.22 1.42,20.77 1.54,21.14 L18.74,106 C18.69,105.75 19.72,105.18 21,104.88 Z" id="Shape" fill="#006D92"></path>
                        <path d="M71.08,23.79 L69.68,23.79 L69.68,24.88 L71,24.88 C71.0597716,24.5198571 71.0865493,24.1550105 71.08,23.79 Z" id="Shape" fill="#FFFFFF"></path>
                        <path d="M69.68,27.05 C70.2484745,26.7023619 70.6523749,26.1397864 70.8,25.49 L69.68,25.49 L69.68,27.05 Z" id="Shape" fill="#FFFFFF"></path>
                        <path d="M71,22.09 L69.68,22.09 L69.68,23.18 L71.08,23.18 C71.0857877,22.815011 71.059015,22.4502329 71,22.09 Z" id="Shape" fill="#FFFFFF"></path>
                        <path d="M70.83,26.81 C71.4699564,26.5310598 72.0153067,26.0725486 72.4,25.49 L71.4,25.49 C71.2824731,25.957875 71.0899836,26.4036404 70.83,26.81 Z" id="Shape" fill="#FFFFFF"></path>
                        <path d="M71.57,24.88 L72.73,24.88 C72.8761491,24.5329227 72.9672449,24.1651657 73,23.79 L71.7,23.79 C71.6886166,24.1564352 71.6451166,24.521166 71.57,24.88 Z" id="Shape" fill="#FFFFFF"></path>
                        <path d="M69.68,19.92 L69.68,21.48 L70.8,21.48 C70.6523749,20.8302136 70.2484745,20.2676381 69.68,19.92 Z" id="Shape" fill="#FFFFFF"></path>
                        <path d="M70.83,20.16 C71.098673,20.5654318 71.3011994,21.0109898 71.43,21.48 L72.43,21.48 C72.037279,20.8929544 71.4809784,20.4340064 70.83,20.16 Z" id="Shape" fill="#FFFFFF"></path>
                        <path d="M71.69,23.18 L73,23.18 C72.9704349,22.8053738 72.8827176,22.4376356 72.74,22.09 L71.57,22.09 C71.6412084,22.449216 71.6813566,22.8138961 71.69,23.18 Z" id="Shape" fill="#FFFFFF"></path>
                        <path d="M67.18,22.09 L66,22.09 C65.8494927,22.435615 65.7582183,22.8040932 65.73,23.18 L67.03,23.18 C67.058491,22.8140298 67.1085783,22.4500623 67.18,22.09 Z" id="Shape" fill="#FFFFFF"></path>
                        <path d="M67.06,23.79 L65.76,23.79 C65.7786734,24.1641725 65.8597923,24.5325874 66,24.88 L67.15,24.88 C67.0981252,24.5188052 67.0680707,24.1548117 67.06,23.79 Z" id="Shape" fill="#FFFFFF"></path>
                        <path d="M67.92,20.16 C67.2815494,20.4413629 66.7368214,20.8993508 66.35,21.48 L67.35,21.48 C67.4694777,21.0127887 67.6618372,20.5673246 67.92,20.16 Z" id="Shape" fill="#FFFFFF"></path>
                        <path d="M66.35,25.49 C66.7368214,26.0706492 67.2815494,26.5286371 67.92,26.81 C67.6494943,26.4055861 67.4468286,25.9597216 67.32,25.49 L66.35,25.49 Z" id="Shape" fill="#FFFFFF"></path>
                        <path d="M69.07,27.05 L69.07,25.49 L68,25.49 C68.1313136,26.1331808 68.5172625,26.6958727 69.07,27.05 Z" id="Shape" fill="#FFFFFF"></path>
                        <path d="M68,21.48 L69.11,21.48 L69.11,19.92 C68.5421044,20.2661842 68.1409222,20.8300078 68,21.48 Z" id="Shape" fill="#FFFFFF"></path>
                        <path d="M77.5,13.09 C66.857319,13.6171821 57.8366077,21.0984672 55.35,31.46 L77.5,31.46 L77.5,13.09 Z M69.38,27.73 C67.6650801,27.73 66.1190222,26.6969572 65.4627508,25.1125778 C64.8064793,23.5281983 65.1692357,21.7044988 66.3818672,20.4918672 C67.5944988,19.2792357 69.4181983,18.9164793 71.0025778,19.5727508 C72.5869572,20.2290222 73.62,21.7750801 73.62,23.49 C73.614502,25.8294062 71.7194062,27.724502 69.38,27.73 Z" id="Shape" fill="#FFFFFF"></path>
                        <path d="M67.8,24.88 L69.07,24.88 L69.07,23.79 L67.67,23.79 C67.6850589,24.1561502 67.7285229,24.5205786 67.8,24.88 Z" id="Shape" fill="#FFFFFF"></path>
                        <path d="M67.67,23.18 L69.07,23.18 L69.07,22.09 L67.8,22.09 C67.7291071,22.449514 67.6856486,22.8138973 67.67,23.18 Z" id="Shape" fill="#FFFFFF"></path>
                        <path d="M77.5,33.52 L55,33.52 C53.9538781,40.8480499 56.3873159,48.2445172 61.58,53.52 L77.58,53.52 L77.5,33.52 Z M63.42,46.78 L61.56,46.78 L61.56,41.4 L63.42,41.4 L63.42,46.78 Z M66.04,46.78 L64.18,46.78 L64.18,42.93 L66,42.93 L66.04,46.78 Z M68.66,46.78 L66.8,46.78 L66.8,40.55 L68.66,40.55 L68.66,46.78 Z M71.28,46.78 L69.42,46.78 L69.42,38.59 L71.28,38.59 L71.28,46.78 Z" id="Shape" fill="#FFFFFF"></path>
                        <path d="M67.77,72.08 C67.77,73.0962039 68.5937961,73.92 69.61,73.92 L77.5,73.92 L77.5,55.63 L63.32,55.63 C66.1946707,59.3549327 67.7589777,63.9248184 67.77,68.63 L67.77,72.08 Z M69.38,59.78 C69.38,59.2774209 69.7874209,58.87 70.29,58.87 L74.29,58.87 C74.7925791,58.87 75.2,59.2774209 75.2,59.78 L75.2,65.33 C75.2,65.8325791 74.7925791,66.24 74.29,66.24 L70.29,66.24 C69.7874209,66.24 69.38,65.8325791 69.38,65.33 L69.38,59.78 Z" id="Shape" fill="#FFFFFF"></path>
                        <path d="M70.29,65.55 L74.29,65.55 C74.4115026,65.55 74.51,65.4515026 74.51,65.33 L74.51,59.78 C74.51,59.6584974 74.4115026,59.56 74.29,59.56 L70.29,59.56 C70.2299398,59.5572671 70.1713778,59.5792335 70.1279309,59.6207914 C70.084484,59.6623493 70.0599379,59.7198777 70.06,59.78 L70.06,65.33 C70.0599379,65.3901223 70.084484,65.4476507 70.1279309,65.4892086 C70.1713778,65.5307665 70.2299398,65.5527329 70.29,65.55 Z M70.67,60.33 L73,60.33 L73,61 L70.67,61 L70.67,60.33 Z M70.67,61.58 L73.87,61.58 L73.87,62.27 L70.67,62.27 L70.67,61.58 Z M70.67,62.84 L73.87,62.84 L73.87,63.52 L70.67,63.52 L70.67,62.84 Z" id="Shape" fill="#FFFFFF"></path>
                        <path d="M79.55,13.09 L79.55,31.46 L101.72,31.46 C99.2916791,21.0541485 90.2258592,13.5422356 79.55,13.09 Z M93.42,22.71 C94.0330361,22.71 94.53,23.2069639 94.53,23.82 C94.53,24.4330361 94.0330361,24.93 93.42,24.93 C92.8069639,24.93 92.31,24.4330361 92.31,23.82 C92.31,23.5256097 92.4269461,23.2432769 92.6351115,23.0351115 C92.8432769,22.8269461 93.1256097,22.71 93.42,22.71 Z M88.74,21 C89.6678384,21 90.42,21.7521616 90.42,22.68 C90.42,23.6078384 89.6678384,24.36 88.74,24.36 C87.8121616,24.36 87.06,23.6078384 87.06,22.68 C87.0654607,21.754433 87.814433,21.0054607 88.74,21 Z M84.06,22.68 C84.5098409,22.6759472 84.9176462,22.9438053 85.0926083,23.3582465 C85.2675705,23.7726877 85.1750879,24.2517494 84.858432,24.571284 C84.5417761,24.8908185 84.063571,24.9876327 83.6475634,24.8164282 C83.2315559,24.6452237 82.9600183,24.2398592 82.96,23.79 C82.9709052,23.1903115 83.4602123,22.7099009 84.06,22.71 L84.06,22.68 Z M82.31,26 C82.3072908,25.771094 82.3970274,25.550772 82.5588997,25.3888997 C82.720772,25.2270274 82.941094,25.1372908 83.17,25.14 L85,25.14 C85.228906,25.1372908 85.449228,25.2270274 85.6111003,25.3888997 C85.7729726,25.550772 85.8627092,25.771094 85.86,26 L82.31,26 Z M86.08,26 C86.08,25.2820298 86.6620298,24.7 87.38,24.7 L90.11,24.7 C90.8279702,24.7 91.41,25.2820298 91.41,26 L86.08,26 Z M91.67,26 C91.6673273,25.7728383 91.7556994,25.5540596 91.9153959,25.3924843 C92.0750924,25.230909 92.2928226,25.1399843 92.52,25.14 L94.32,25.14 C94.7949649,25.14 95.18,25.5250351 95.18,26 L91.67,26 Z" id="Shape" fill="#FFFFFF"></path>
                        <path d="M79.55,73.9200272 L87.44,73.92 C87.9297287,73.9226616 88.400313,73.7299807 88.7475458,73.3846248 C89.0947785,73.039269 89.2900072,72.5697359 89.29,72.08 L89.29,68.78 C89.3006686,64.0272198 90.8671248,59.4086325 93.75,55.63 L79.55,55.63 L79.55,73.9200272 Z M82.72,61.92 C82.8973176,61.9171184 83.0725711,61.9583546 83.23,62.04 C83.3330218,61.0412315 84.202696,60.2996975 85.2051931,60.3558373 C86.2076902,60.4119771 86.9891347,61.2459738 86.98,62.25 C87.4991477,62.25 87.92,62.6708523 87.92,63.19 C87.92,63.7091477 87.4991477,64.13 86.98,64.13 L82.72,64.13 C82.1503083,64.0757438 81.7152378,63.5972695 81.7152378,63.025 C81.7152378,62.4527305 82.1503083,61.9742562 82.72,61.92 Z" id="Shape" fill="#FFFFFF"></path>
                        <path d="M89.51,44.35 C89.4590688,44.4069445 89.3863973,44.4396467 89.31,44.44 C89.2330301,44.4424041 89.1592472,44.4092018 89.11,44.35 L88,43.1 L85.72,45.72 C85.8714328,45.8098766 86.0439138,45.8581713 86.22,45.86 L92.35,45.86 C92.5266517,45.8623086 92.7002324,45.813706 92.85,45.72 L90.6,43.1 L89.51,44.35 Z" id="Shape" fill="#FFFFFF"></path>
                        <path d="M91,42.69 L93.28,45.31 C93.3325365,45.1866759 93.3597423,45.054048 93.36,44.92 L93.36,40.45 C93.3597423,40.315952 93.3325365,40.1833241 93.28,40.06 L91,42.69 Z" id="Shape" fill="#FFFFFF"></path>
                        <path d="M102.11,33.52 L79.55,33.52 L79.55,53.52 L95.55,53.52 C95.5791269,53.4959126 95.6059126,53.4691269 95.63,53.44 C99.9682475,49.0008523 102.391866,43.0369544 102.38,36.83 C102.364269,35.7218632 102.274065,34.6160371 102.11,33.52 Z M93.85,44.92 C93.85,45.7373814 93.1873814,46.4 92.37,46.4 L86.24,46.4 C85.8483929,46.4000091 85.4729692,46.2437625 85.1970015,45.9659175 C84.9210337,45.6880724 84.767336,45.311598 84.77,44.92 L84.77,40.45 C84.7809403,39.6459626 85.4358882,38.9999256 86.24,39 L92.37,39 C92.761598,38.997336 93.1380724,39.1510337 93.4159175,39.4270015 C93.6937625,39.7029692 93.8500091,40.0783929 93.85,40.47 L93.85,44.92 Z" id="Shape" fill="#FFFFFF"></path>
                        <path d="M92.87,39.66 C92.7213119,39.562773 92.5476536,39.5106755 92.37,39.51 L86.24,39.51 C86.0629923,39.5148496 85.8904466,39.5666133 85.74,39.66 L89.31,43.77 L92.87,39.66 Z" id="Shape" fill="#FFFFFF"></path>
                        <path d="M85.39,40.06 C85.3297451,40.1811125 85.29891,40.314731 85.3,40.45 L85.3,44.92 C85.2977366,45.0553953 85.328635,45.1892882 85.39,45.31 L87.66,42.69 L85.39,40.06 Z" id="Shape" fill="#FFFFFF"></path>
                        <path d="M87.69,75.05 L69.37,75.05 C68.4752987,75.05 67.75,75.7752987 67.75,76.67 C67.75,77.5647013 68.4752987,78.29 69.37,78.29 L87.69,78.29 C88.5847013,78.29 89.31,77.5647013 89.31,76.67 C89.31,75.7752987 88.5847013,75.05 87.69,75.05 Z" id="Shape" fill="#FFFFFF"></path>
                        <path d="M87.69,79.42 L69.37,79.42 C68.4752987,79.42 67.75,80.1452987 67.75,81.04 C67.75,81.9347013 68.4752987,82.66 69.37,82.66 L87.69,82.66 C88.2687703,82.6600001 88.8035761,82.3512298 89.0929613,81.8500001 C89.3823465,81.3487703 89.3823465,80.7312297 89.0929613,80.2299999 C88.8035761,79.7287702 88.2687703,79.4199999 87.69,79.42 Z" id="Shape" fill="#FFFFFF"></path>
                        <path d="M84.58,83.79 L72.13,83.79 C71.2352987,83.79 70.51,84.5152987 70.51,85.41 C70.51,86.3047013 71.2352987,87.03 72.13,87.03 L84.58,87.03 C85.4747013,87.03 86.2,86.3047013 86.2,85.41 C86.2,84.5152987 85.4747013,83.79 84.58,83.79 Z" id="Shape" fill="#FFFFFF"></path>
                    </g>
                </g>
            </g>
        </g>
    </g>
</svg>