<?xml version="1.0" encoding="UTF-8"?>
<svg width="196px" height="196px" viewBox="0 0 196 196" version="1.1" xmlns="http://www.w3.org/2000/svg" xmlns:xlink="http://www.w3.org/1999/xlink">
    <!-- Generator: Sketch 50.2 (55047) - http://www.bohemiancoding.com/sketch -->
    <title>Leadership-Development-Path</title>
    <desc>Created with Sketch.</desc>
    <defs>
        <linearGradient x1="50.5807974%" y1="99.9893079%" x2="49.4289056%" y2="-0.00405760199%" id="linearGradient-1">
            <stop stop-color="#EDBC46" offset="0%"></stop>
            <stop stop-color="#EDA44C" offset="27%"></stop>
            <stop stop-color="#C48031" offset="61%"></stop>
            <stop stop-color="#D89D3B" offset="80%"></stop>
            <stop stop-color="#FFED95" offset="100%"></stop>
        </linearGradient>
        <linearGradient x1="0.00539051269%" y1="50.0000001%" x2="99.9999997%" y2="50.0000001%" id="linearGradient-2">
            <stop stop-color="#EDBC46" offset="0%"></stop>
            <stop stop-color="#EDA44C" offset="27%"></stop>
            <stop stop-color="#C48031" offset="61%"></stop>
            <stop stop-color="#D89D3B" offset="80%"></stop>
            <stop stop-color="#FFED95" offset="100%"></stop>
        </linearGradient>
        <radialGradient cx="49.4175532%" cy="50.7401411%" fx="49.4175532%" fy="50.7401411%" r="49.9455967%" id="radialGradient-3">
            <stop stop-color="#7D1416" offset="0%"></stop>
            <stop stop-color="#981819" offset="9%"></stop>
            <stop stop-color="#C61F1F" offset="26%"></stop>
            <stop stop-color="#E22323" offset="39%"></stop>
            <stop stop-color="#ED2524" offset="46%"></stop>
            <stop stop-color="#EC1E24" offset="87%"></stop>
            <stop stop-color="#DB1C22" offset="89%"></stop>
            <stop stop-color="#A41619" offset="94%"></stop>
            <stop stop-color="#811214" offset="98%"></stop>
            <stop stop-color="#741112" offset="100%"></stop>
        </radialGradient>
        <radialGradient cx="48.8808393%" cy="50%" fx="48.8808393%" fy="50%" r="50%" id="radialGradient-4">
            <stop stop-color="#5E0000" offset="0%"></stop>
            <stop stop-color="#5E0000" offset="61%"></stop>
            <stop stop-color="#5E0000" offset="87%"></stop>
            <stop stop-color="#BE1E2D" offset="100%"></stop>
        </radialGradient>
        <linearGradient x1="1.36326081%" y1="61.4033413%" x2="98.2649408%" y2="34.5584726%" id="linearGradient-5">
            <stop stop-color="#4D1211" offset="0%"></stop>
            <stop stop-color="#521312" offset="2%"></stop>
            <stop stop-color="#601414" offset="4%"></stop>
            <stop stop-color="#781718" offset="6%"></stop>
            <stop stop-color="#991B1D" offset="8%"></stop>
            <stop stop-color="#C32024" offset="11%"></stop>
            <stop stop-color="#D82327" offset="12%"></stop>
            <stop stop-color="#AE524F" offset="29%"></stop>
            <stop stop-color="#912829" offset="43%"></stop>
            <stop stop-color="#851719" offset="50%"></stop>
            <stop stop-color="#D52427" offset="78%"></stop>
        </linearGradient>
        <linearGradient x1="1.36363636%" y1="61.3937947%" x2="98.292011%" y2="34.5584726%" id="linearGradient-6">
            <stop stop-color="#150958" offset="0%"></stop>
            <stop stop-color="#190E5D" offset="3%"></stop>
            <stop stop-color="#251C6A" offset="5%"></stop>
            <stop stop-color="#383480" offset="8%"></stop>
            <stop stop-color="#53549F" offset="11%"></stop>
            <stop stop-color="#5D60AA" offset="12%"></stop>
            <stop stop-color="#9E9DCD" offset="29%"></stop>
            <stop stop-color="#9C9BCC" offset="29%"></stop>
            <stop stop-color="#6E70B3" offset="43%"></stop>
            <stop stop-color="#5D60AA" offset="50%"></stop>
            <stop stop-color="#2E3192" offset="70%"></stop>
        </linearGradient>
        <linearGradient x1="39.7249212%" y1="50.4974593%" x2="62.7490391%" y2="49.3161044%" id="linearGradient-7">
            <stop stop-color="#9F1D21" offset="0%"></stop>
            <stop stop-color="#A21E21" offset="12%"></stop>
            <stop stop-color="#994845" offset="29%"></stop>
            <stop stop-color="#7F2222" offset="60%"></stop>
            <stop stop-color="#731112" offset="78%"></stop>
            <stop stop-color="#761213" offset="85%"></stop>
            <stop stop-color="#811517" offset="90%"></stop>
            <stop stop-color="#931A1C" offset="96%"></stop>
            <stop stop-color="#A21E21" offset="99%"></stop>
        </linearGradient>
        <linearGradient x1="39.4534837%" y1="50.3424589%" x2="62.5058067%" y2="49.1247938%" id="linearGradient-8">
            <stop stop-color="#150958" offset="0%"></stop>
            <stop stop-color="#170C5D" offset="3%"></stop>
            <stop stop-color="#1D166B" offset="6%"></stop>
            <stop stop-color="#272683" offset="10%"></stop>
            <stop stop-color="#2E3192" offset="12%"></stop>
            <stop stop-color="#CA9FB3" offset="29%"></stop>
            <stop stop-color="#C59BB0" offset="30%"></stop>
            <stop stop-color="#97789A" offset="44%"></stop>
            <stop stop-color="#866A91" offset="50%"></stop>
            <stop stop-color="#2E3192" offset="78%"></stop>
            <stop stop-color="#2C2F8F" offset="84%"></stop>
            <stop stop-color="#282784" offset="89%"></stop>
            <stop stop-color="#201B72" offset="94%"></stop>
            <stop stop-color="#150959" offset="99%"></stop>
            <stop stop-color="#150958" offset="99%"></stop>
        </linearGradient>
    </defs>
    <g id="Page-1" stroke="none" stroke-width="1" fill="none" fill-rule="evenodd">
        <g id="Toastmasters-Pathways-Infographic" transform="translate(-979.000000, -6217.000000)" fill-rule="nonzero">
            <g id="10-Paths" transform="translate(0.000000, 4217.000000)">
                <g id="Leadership-Development-Path" transform="translate(978.000000, 1999.000000)">
                    <circle id="Oval" fill="url(#linearGradient-1)" transform="translate(99.005257, 98.998526) rotate(-89.340000) translate(-99.005257, -98.998526) " cx="99.0052573" cy="98.9985263" r="97.5"></circle>
                    <path d="M191.75,99 C191.744477,150.223108 150.216443,191.743681 98.9933341,191.74 C47.7702255,191.736318 6.2481599,150.209776 6.2500006,98.986667 C6.2518413,47.7635583 47.7768913,6.2400003 99,6.24 C123.600562,6.23999986 147.193403,16.0132195 164.58769,33.4093815 C181.981976,50.8055435 191.752652,74.399438 191.75,99 Z" id="Shape" fill="url(#linearGradient-2)"></path>
                    <circle id="Oval" fill="url(#radialGradient-3)" transform="translate(98.999220, 99.000341) rotate(-0.120000) translate(-98.999220, -99.000341) " cx="98.99922" cy="99.0003413" r="88.23"></circle>
                    <circle id="Oval" fill="url(#radialGradient-4)" transform="translate(100.324710, 98.326168) rotate(-89.640000) translate(-100.324710, -98.326168) " cx="100.32471" cy="98.3261677" r="77.38"></circle>
                    <g id="Group" transform="translate(26.000000, 44.000000)">
                        <g opacity="0.75" style="mix-blend-mode: multiply;" transform="translate(5.000000, 5.000000)" fill="#231F20" id="Shape">
                            <path d="M5.52,21.2 C5.52,21.2 11.63,10.6 37.16,7.2 C62.88,3.78 80.79,15.56 111.59,10.88 C122.45,9.23 130.54,7.38 132.59,0.96 L150.73,81.09 C150.73,81.09 135.73,95.82 110.01,95.82 C84.29,95.82 59.56,82.12 23.13,105.7 L5.52,21.2 Z"></path>
                            <path d="M5.44,20.84 C5.44,20.84 11.55,10.24 37.08,6.84 C62.79,3.43 80.71,15.21 111.5,10.53 C122.37,8.88 130.5,7.02 132.5,0.61 L150.63,80.73 C150.63,80.73 135.63,95.46 109.92,95.46 C84.21,95.46 59.47,81.77 23.04,105.34 L5.44,20.84 Z"></path>
                            <path d="M4.81,17.4 C4.81,17.4 4.19,16.4 2.18,16.85 C0.17,17.3 0.41,18.49 0.41,18.49 C13.819401,85.8721354 20.5241016,119.563203 20.5241016,119.563203 C20.5241016,119.563203 21.4641016,120.403203 23.7041016,120.033203 C24.7107682,119.866536 25.4307682,119.486536 25.8641016,118.893203 L4.81,17.4 Z"></path>
                            <path d="M20.63,105.47 C21.92,105.17 22.98,105.11 23.08,105.35 L5.45,20.63 C5.27,20.31 4.27,20.27 3.12,20.56 C1.97,20.85 1,21.4 1.12,21.77 L18.34,106.6 C18.28,106.34 19.31,105.78 20.63,105.47 Z"></path>
                            <path d="M50.56,29.69 C50.49,30.22 50.56,30.69 50.42,31.03 C50.1952809,31.5304186 50.0534298,32.0640488 50,32.61 C49.8814731,33.1621448 49.7003001,33.6989536 49.46,34.21 C49.34,34.47 49.46,34.67 49.18,34.75 C48.9,34.83 48.66,35.45 48.56,35.75 C48.46,36.05 48.24,35.99 48.24,36.41 C48.24,36.83 48.06,37.28 48.11,37.5 C48.16,37.72 48.17,38.04 48.04,37.77 C47.91,37.5 47.76,37.57 47.71,37.3 C47.66,37.03 47.71,36.8 47.6,36.98 C47.49,37.16 47.34,37.13 47.23,37.34 C47.12,37.55 47.13,37.56 47.23,37.86 C47.33,38.16 47.64,38.4 47.42,38.56 C47.2,38.72 47.14,38.92 46.98,38.72 C46.82,38.52 46.98,38.43 46.83,38.53 C46.68,38.63 46.47,38.73 46.36,38.46 C46.25,38.19 46.18,37.98 46.08,37.75 C45.98,37.52 45.79,37.82 45.7,38.28 C45.61,38.74 45.36,38.74 45.27,38.88 C45.1596727,39.1063532 45.0886595,39.349827 45.06,39.6 C45.06,39.75 45.06,39.89 45.06,40.06 C45.0448334,40.2028463 45.105532,40.3432119 45.22,40.43 C45.07,40.43 45.01,40.43 45.01,40.66 C45.01,41.75 45.84,42.72 46.35,43.54 C46.86,44.36 47.06,45.02 46.55,45.11 C46.28,45.11 45.35,43.61 44.28,42.25 C43.28,41.05 42.68,40.34 42.28,40.44 C41.51,40.65 40.13,39.28 39.02,38.54 L39.57,38.6 C39.6989848,38.6130682 39.825034,38.5557731 39.9,38.45 C40.01,38.29 40.17,38.15 40.02,38.11 C39.87,38.07 39.85,37.93 39.79,38.01 C39.73,38.09 39.79,38.13 39.62,38.19 C39.45,38.25 39.42,38.31 39.28,38.3 C39.14,38.29 39.18,38.23 39.06,38.1 C38.8708047,37.9236529 38.6547748,37.7785078 38.42,37.67 C38.16,37.54 38.07,37.53 37.96,37.41 C37.85,37.29 37.8,37.41 37.66,37.19 C37.565938,37.0510526 37.4918797,36.8995698 37.44,36.74 C37.44,36.6 37.2,35.74 37.13,35.5 C37.06,35.26 37.03,35.4 36.88,35.01 C36.778837,34.7775805 36.6985213,34.5366334 36.64,34.29 C36.57,34.01 36.42,33.94 36.44,33.6 C36.46,33.26 36.44,33.19 36.44,33.01 C36.44,32.83 36.44,32.94 36.52,32.82 C36.6,32.7 36.52,32.82 36.63,32.94 C36.74,33.06 36.76,33.14 36.81,33.13 C36.86,33.12 36.81,33.02 36.81,32.8 C36.81,32.58 36.81,32.62 36.81,32.4 C36.81,32.18 36.99,32.09 36.81,32.14 C36.63,32.19 36.69,32.14 36.51,32.26 C36.33,32.38 36.38,32.33 36.27,32.52 C36.1950072,32.6386478 36.1281858,32.7622674 36.07,32.89 C35.97,33.13 35.72,33.28 35.98,32.83 C36.24,32.38 36.44,32.09 36.63,31.83 C36.767802,31.6629345 36.8760276,31.4735396 36.95,31.27 C37.0212788,31.0901378 37.0212788,30.8898622 36.95,30.71 C36.7067185,30.2568504 36.6390703,29.7299065 36.76,29.23 C36.97,28.63 37.18,28.49 37.18,28.15 C37.2652312,27.6575477 37.4949659,27.2015592 37.84,26.84 C38.12,26.6 38.41,26.08 38.62,25.84 C38.8464757,25.5699048 39.116947,25.3400043 39.42,25.16 C39.74,25.03 39.91,24.79 40.42,24.58 C40.93,24.37 41.72,24.06 42,24 C42.28,23.94 42.39,23.77 42.74,23.73 L43.59,23.63 C43.9228781,23.5662043 44.2654134,23.6753639 44.5,23.92 C44.6576039,24.0301736 44.8079176,24.1504245 44.95,24.28 L45.28,24.4 C45.71,24.46 46.28,24.21 46.6,24.4 C47.127722,24.674195 47.6211513,25.0098612 48.07,25.4 C48.62,25.93 48.32,25.81 48.73,26.24 C49.14,26.67 49.36,26.61 49.48,26.85 C49.5830161,27.1725662 49.7311507,27.4789355 49.92,27.76 C50.16,28.04 50.2,27.76 50.36,28.37 C50.5313611,28.7876489 50.5999498,29.2403343 50.56,29.69 Z"></path>
                            <path d="M104.91,67.86 C104.66,68.52 104.41,69.02 104.19,69.09 C103.44,69.32 103.41,70.38 104.3,70.8 C105.19,71.22 104.82,74.5 105.23,74.95 C105.29,75.02 105.33,75.02 105.36,74.95 C105.53,74.68 105.26,72.56 105.65,70.95 C106.095501,68.5472483 106.233276,66.0975526 106.06,63.66 C105.754683,65.0802022 105.370759,66.4823595 104.91,67.86 Z"></path>
                            <path d="M133.38,74.29 C133.36036,73.2793516 133.653766,72.2873617 134.22,71.45 C134.86,70.31 135.58,69.33 135.22,68.78 C134.72,67.94 134.36,67.9 133.94,67.29 C133.512173,66.5788412 133.195203,65.8066464 133,65 C133.22,67.71 132.56,71.72 133.38,74.29 Z"></path>
                            <path d="M119.74,45.2 C120.910412,44.2100487 121.922161,43.0465369 122.74,41.75 C122.663509,41.3877486 122.616687,41.0198627 122.6,40.65 C122.583644,39.5690754 122.704612,38.4904487 122.96,37.44 C123.166037,37.3544354 123.386902,37.3102624 123.61,37.31 C124.07,37.31 124.21,34.93 124.27,34.37 C124.450809,33.247545 124.567664,32.1157192 124.62,30.98 C124.62,29.57 123.62,26.98 122.87,27.06 C122.12,27.14 122.2,25.33 121.57,25.74 C120.94,26.15 120.04,25.09 119.35,24.57 C118.51,23.57 118.61,25.19 117.53,24.78 C116.45,24.37 116.45,25.78 115.4,25.87 C114.35,25.96 114.81,27.15 113.77,27.41 C112.73,27.67 113.89,29.32 113.22,30.79 C112.55,32.26 113.22,33.54 112.97,34.45 C112.628147,35.284187 112.679554,36.2278837 113.11,37.02 C113.62,38.02 113.99,41.35 114.89,41.37 C115.29,41.37 114.89,41.91 114.68,42.18 C115.23,42.79 115.53,43.18 116.68,44.41 C117.83,45.64 118,46.52 119.74,45.2 Z"></path>
                            <path d="M130.92,92 C131.15,89.83 131.33,87.63 131.48,88 C131.69,88.53 132.4,87 132.99,86.48 C133.445451,85.8993085 133.741842,85.2100271 133.85,84.48 C134.238384,84.4033935 134.634491,84.373182 135.03,84.39 L135.18,84.39 C135.99,84.39 136.11,83.84 136.6,83.01 C137.09,82.18 140.33,76.3 141.7,73.89 C143.07,71.48 142.64,67.74 140.95,65.07 C139.26,62.4 135.57,52.58 134.83,49.63 C134.581594,48.3448783 133.790622,47.2294977 132.66,46.57 C131.851503,46.1577194 130.984882,45.8710938 130.09,45.72 C127.926937,45.0636352 125.811885,44.2583786 123.76,43.31 L123.65,43.15 C123.640365,43.2297099 123.640365,43.3102901 123.65,43.39 C123.53,45.33 123.58,51.97 123.86,56.39 C124.14,60.81 123.69,63.29 124.64,66.86 C125.59,70.43 125.83,72.47 126.93,74.57 C128.03,76.67 128.73,78.21 128.73,78.21 C126.598109,78.0990666 124.461891,78.0990666 122.33,78.21 C121.2,78.28 119.75,78.43 118.28,78.58 C117.86,80.65 117.22,80.52 116.48,81.64 C115.58,82.98 115.48,83.03 114.42,81.64 C113.779397,80.8997467 113.329653,80.0139911 113.11,79.06 C112.692802,79.0917262 112.273331,79.0749473 111.86,79.01 C111.136847,78.8483132 110.432903,78.6103129 109.76,78.3 C110.587077,76.0155098 111.255334,73.6766077 111.76,71.3 C112.687389,66.8296788 113.050223,62.2606609 112.84,57.7 C112.53,52.76 112.12,48.07 112.92,45.48 C113.21,44.55 113.42,43.86 113.57,43.35 C113.46,43.46 113.57,43.35 113.57,43.35 L113.64,43.35 C112.82,44.07 110.31,45.18 106.81,45.88 C105.717631,46.0571316 104.65235,46.3730193 103.64,46.82 C102.83,47.25 102.64,47.71 102.64,48.25 C102.7,49.25 101.89,51.55 101.16,53.6 C100.43,55.65 100.58,56.6 100.04,58.6 C99.5,60.6 99.13,63.92 98.67,65.77 C98.21,67.62 98.25,71.34 97.9,73.47 C97.55,75.6 99.9,79.19 100.96,80.94 C102.02,82.69 102.49,85.63 102.85,85.13 C103.21,84.63 103.54,85.47 103.25,87.01 C102.96,88.55 103.03,89.61 103.75,88.9 C104.47,88.19 105.65,87.15 105.65,87.15 C106.02634,88.0856401 106.123593,89.1102646 105.93,90.1 C105.652985,91.8237014 105.495941,93.5645511 105.46,95.31 C106.97,95.39 108.46,95.44 110,95.44 C117.115489,95.4569253 124.184594,94.2945104 130.92,92 Z M133,65 C133.191807,65.7951393 133.501931,66.5569673 133.92,67.26 C134.34,67.87 134.7,67.91 135.2,68.75 C135.54,69.3 134.82,70.28 134.2,71.42 C133.633766,72.2573617 133.34036,73.2493516 133.36,74.26 C132.56,71.72 133.22,67.71 133,65 Z M105.61,71 C105.22,72.59 105.49,74.71 105.32,75 C105.32,75 105.25,75 105.19,75 C104.78,74.55 105.19,71.27 104.26,70.85 C103.33,70.43 103.4,69.37 104.15,69.14 C104.37,69.07 104.62,68.57 104.87,67.91 C105.328989,66.5487539 105.7129,65.1633359 106.02,63.76 C106.202217,66.1792831 106.077898,68.6118968 105.65,71 L105.61,71 Z"></path>
                            <path d="M114.64,42.21 C114.34,42.54 113.85,43.1 113.64,43.32 C114.008039,42.982806 114.342904,42.6111058 114.64,42.21 Z"></path>
                            <polygon points="122.84 42.05 123.65 43.15 123.65 43.14"></polygon>
                            <path d="M119.73,62.82 C120.04,59.56 120.21,53.29 119.73,51.88 C119.25,50.47 118.88,49.73 119,49.1 C119.12,48.47 120,47.86 120,47.86 C119.618882,47.1867118 119.05797,46.6327251 118.38,46.26 L116.68,48.17 C116.68,48.17 117.68,48.42 117.41,49.17 C116.497172,52.8180678 115.786094,56.5136719 115.28,60.24 C114.41,66.1 113.36,76.33 113.09,77.79 C113.009605,78.2162423 113.009605,78.6537577 113.09,79.08 C114.37,79.08 116.33,78.83 118.26,78.63 C118.34,78.21 118.42,77.72 118.48,77.09 C118.85,73.4 119.42,66.07 119.73,62.82 Z"></path>
                            <path d="M114.39,81.69 C115.46,83.11 115.55,83.06 116.45,81.69 C117.19,80.57 117.83,80.69 118.25,78.63 C116.32,78.83 114.36,79.04 113.08,79.08 C113.295049,80.0446112 113.745044,80.9411658 114.39,81.69 Z"></path>
                            <path d="M50,27.72 C49.8111507,27.4389355 49.6630161,27.1325662 49.56,26.81 C49.44,26.57 49.21,26.62 48.81,26.2 C48.41,25.78 48.7,25.89 48.15,25.36 C47.7011513,24.9698612 47.207722,24.634195 46.68,24.36 C46.34,24.14 45.79,24.36 45.36,24.36 L45,24.24 C44.8579176,24.1104245 44.7076039,23.9901736 44.55,23.88 C44.3154134,23.6353639 43.9728781,23.5262043 43.64,23.59 L42.79,23.69 C42.44,23.69 42.38,23.85 42.05,23.96 C41.72,24.07 40.88,24.35 40.37,24.55 C39.86,24.75 39.68,25 39.37,25.13 C39.066947,25.3100043 38.7964757,25.5399048 38.57,25.81 C38.36,26.01 38.07,26.53 37.79,26.81 C37.4449659,27.1715592 37.2152312,27.6275477 37.13,28.12 C37.13,28.46 36.92,28.6 36.71,29.2 C36.5890703,29.6999065 36.6567185,30.2268504 36.9,30.68 C36.9712788,30.8598622 36.9712788,31.0601378 36.9,31.24 C36.8260276,31.4435396 36.717802,31.6329345 36.58,31.8 C36.39,32.09 36.18,32.38 35.93,32.8 C35.68,33.22 35.93,33.1 36.02,32.86 C36.0781858,32.7322674 36.1450072,32.6086478 36.22,32.49 C36.33,32.3 36.28,32.41 36.46,32.23 C36.64,32.05 36.56,32.17 36.76,32.11 C36.96,32.05 36.76,32.16 36.76,32.37 C36.76,32.58 36.76,32.55 36.76,32.77 C36.76,32.99 36.76,33.08 36.76,33.1 C36.76,33.12 36.68,33.04 36.58,32.91 C36.48,32.78 36.66,32.55 36.47,32.79 C36.28,33.03 36.47,32.79 36.39,32.98 C36.31,33.17 36.39,33.23 36.39,33.57 C36.39,33.91 36.52,33.98 36.59,34.26 C36.6485213,34.5066334 36.728837,34.7475805 36.83,34.98 C36.98,35.37 37.01,35.26 37.08,35.47 C37.15,35.68 37.35,36.57 37.39,36.71 C37.4418797,36.8695698 37.515938,37.0210526 37.61,37.16 C37.75,37.38 37.81,37.26 37.91,37.38 C38.01,37.5 38.11,37.51 38.37,37.64 C38.6047748,37.7485078 38.8208047,37.8936529 39.01,38.07 C39.13,38.2 39.09,38.26 39.23,38.27 C39.37,38.28 39.42,38.27 39.57,38.16 C39.72,38.05 39.67,38.05 39.74,37.98 C39.81,37.91 39.82,38.04 39.97,38.08 C40.12,38.12 39.97,38.26 39.85,38.42 C39.775034,38.5257731 39.6489848,38.5830682 39.52,38.57 L38.97,38.51 C40.08,39.25 41.46,40.62 42.23,40.41 C42.6,40.31 43.23,41.02 44.23,42.22 C45.3,43.58 46.23,45.12 46.5,45.08 C47.01,44.99 46.82,44.33 46.3,43.51 C45.78,42.69 44.96,41.72 44.96,40.63 C44.96,40.4 45.02,40.35 45.17,40.4 C45.0415103,40.3101412 44.9755204,40.1548707 45,40 C45,39.83 45,39.69 45,39.54 C45.0286595,39.289827 45.0996727,39.0463532 45.21,38.82 C45.3,38.68 45.54,38.67 45.64,38.22 C45.74,37.77 45.92,37.45 46.02,37.69 C46.12,37.93 46.19,38.12 46.3,38.4 C46.41,38.68 46.6,38.57 46.77,38.47 C46.94,38.37 46.77,38.47 46.92,38.66 C47.07,38.85 47.14,38.66 47.36,38.5 C47.58,38.34 47.27,38.1 47.17,37.8 C47.07,37.5 47.08,37.5 47.17,37.28 C47.26,37.06 47.42,37.09 47.54,36.92 C47.66,36.75 47.6,36.92 47.65,37.24 C47.7,37.56 47.85,37.44 47.98,37.71 C48.11,37.98 48.1,37.71 48.05,37.44 C48,37.17 48.19,36.77 48.18,36.35 C48.17,35.93 48.41,35.94 48.5,35.69 C48.59,35.44 48.88,34.81 49.12,34.69 C49.36,34.57 49.28,34.41 49.4,34.15 C49.6403001,33.6389536 49.8214731,33.1021448 49.94,32.55 C50.0155775,32.0108762 50.177661,31.4874815 50.42,31 C50.61,30.64 50.49,30.19 50.56,29.66 C50.6192169,29.2004064 50.5642634,28.7333019 50.4,28.3 C50.24,27.76 50.2,28 50,27.72 Z"></path>
                            <path d="M54.93,74.55 C54.93,73.43 56.13,74.15 55.93,73.03 C55.93,71.9 54.41,66.26 54.41,65.13 C54.41,63.2 52.91,62.13 53.82,61.92 C54.73,61.71 55.93,61.92 57.04,61.92 C60.55,60.92 59.6,57.37 59.12,55.77 C58.32,54.26 54.41,50.11 54.12,48.91 C54.12,47.62 52.2,45.62 52.21,44.44 C52.21,42.72 48.13,42.06 47.4,41.56 C46.8996321,41.2672911 46.3742303,41.0196495 45.83,40.82 C46.5150432,41.2507197 47.2550458,41.5870846 48.03,41.82 C49.17,42.17 51.26,43.11 50.56,43.11 C49.86,43.11 47.73,43.62 47.56,45.03 C47.47,46.13 50.92,52.76 50.08,51.42 C49.7,50.82 48.73,48.92 48.18,47.93 C47.33,46.43 45.34,45.11 44.18,43.55 C43.34,42.37 43.01,42.37 40.85,43.55 C40.34,43.82 40.25,42.64 39.67,42.07 C38.59,40.98 37.47,40.39 37.01,39.78 C36.85,40.21 36.5,40.64 35.52,40.78 C34.0217514,41.0037452 32.8699365,42.2216139 32.73,43.73 C32.73,45.28 33.84,48.86 33.84,50.52 C33.84,51.61 33.12,52.83 34.96,53.87 C35.659332,54.5765509 36.0846637,55.5087362 36.16,56.5 C36.16,58.69 37.69,59.16 37.91,60.33 C38.23,61.97 37.27,64.21 37.27,67.51 C37.27,68.87 36.08,71.51 36.48,79.33 C36.4,80.8 40.1,92.01 40.48,96.33 C44.6242186,94.7540085 48.9013213,93.5525375 53.26,92.74 C53.4880925,91.5963814 53.6549964,90.441406 53.76,89.28 C54.29,84.44 55,79.61 54.93,74.55 Z"></path>
                            <path d="M82.09,54.78 L82,54.78 L82.09,54.78 Z"></path>
                            <polygon points="74.09 51.78 74.09 51.77 74.09 51.78"></polygon>
                            <polygon points="82.07 54.75 82.07 54.75 81.98 54.75"></polygon>
                            <path d="M95.19,52.39 C95.19,51.16 93.46,50.91 92.29,49.39 C90.8726139,48.1391436 90.0214031,46.3681925 89.93,44.48 L89.8,44.48 C90,42.94 90.38,40.12 90.38,40.08 C89.92,39.27 89.58,37.51 90.38,37.26 C90.38,37.58 89.98,37.78 90.64,37.77 C91.73,35.9 90.16,34.56 89.36,33.16 L90.13,33.16 C89.13,31.31 87.87,29.4 88.79,27.27 C88.79,27.47 88.79,27.78 89.04,27.78 C88.78,24.22 86.04,19.01 83.83,17.59 C83.3297342,17.2232305 82.7623423,16.9582211 82.16,16.81 C76.16,15.34 73.67,20.56 71.68,24.92 C72.48,27.57 69.92,29.34 69.68,32.01 C70,32.7 69.79,33.01 70.11,33.68 C68.7,33.6 69.11,34.59 67.99,34.04 C67.57,35.13 69.08,34.3 68.66,35.39 C67.39,35.46 67.12,36 66.66,36.07 C63.86,39.7 67.46,48.73 69.03,51.95 C70.03,53.95 71.78,55.29 72.03,56.68 C73.32,62.77 67.03,68.19 66.62,74.59 C66.3,80.23 67.56,85.88 68.37,91.59 C73.778423,91.7024273 79.1750251,92.1432389 84.53,92.91 C86.88,84.71 89.53,76.84 88.59,66.14 C89.41,65.67 90.13,66.14 90.32,65.68 C91.2783195,64.3574521 91.7387307,62.7389298 91.62,61.11 C91.51,60.19 90.86,59.83 90.94,58.96 C92.2613763,58.8151152 93.5347544,58.3815521 94.67,57.69 C95.2289322,55.9826393 95.406439,54.1734349 95.19,52.39 Z M83.39,39.23 C82.77,40.71 83.39,42.23 83.14,42.63 C81.64,42.63 81.84,39.85 78.81,37.93 C75.97,35.46 77.81,34.59 76.46,34.59 C74.56,34.59 74.36,36.59 73.31,36.7 C71.15,36.45 71.52,36.06 71.52,35.7 C71.52,35.34 73.99,36.93 74.92,33.22 C75.92,33.22 75.79,32.22 76.59,33.12 C76.89,33.46 79.59,37.61 80.59,37.61 C80.84,37.06 79.72,34.52 80.9,34.52 C81.61,34.52 82.31,36.2 82.9,36.93 C83.49,37.66 84.12,37.61 83.39,39.23 Z"></path>
                        </g>
                        <path d="M5.42,21.1 C5.42,21.1 11.54,10.51 37.07,7.1 C62.78,3.68 80.7,15.46 111.49,10.78 C122.35,9.13 130.49,7.28 132.49,0.86 L150.66,81 C150.66,81 135.66,95.74 109.95,95.74 C84.24,95.74 59.49,82 23.06,105.61 L5.42,21.1 Z" id="Shape" fill="url(#linearGradient-5)"></path>
                        <path d="M5.34,20.75 C5.34,20.75 11.46,10.15 36.98,6.75 C62.7,3.33 80.61,15.11 111.41,10.43 C122.27,8.78 130.41,6.93 132.41,0.51 L150.54,80.64 C150.54,80.64 135.54,95.37 109.82,95.37 C84.1,95.37 59.41,81.68 23,105.26 L5.34,20.75 Z" id="Shape" fill="url(#linearGradient-6)"></path>
                        <path d="M26.9503516,124.721836 L4.72,17.3 C4.72,17.3 4.09,16.3 2.08,16.76 C0.07,17.22 0.32,18.39 0.32,18.39 L21.6103516,125.381836 C21.6103516,125.771836 22.5403516,126.211836 24.7903516,125.851836 C25.7970182,125.685169 26.5170182,125.308503 26.9503516,124.721836 Z" id="Shape" fill="url(#linearGradient-7)"></path>
                        <path d="M20.53,105.38 C21.83,105.08 22.89,105.02 22.98,105.26 L5.36,20.54 C5.19,20.21 4.19,20.18 3.04,20.46 C1.89,20.74 0.92,21.3 1.04,21.67 L18.24,106.5 C18.19,106.25 19.22,105.69 20.53,105.38 Z" id="Shape" fill="url(#linearGradient-8)"></path>
                        <path d="M50.46,29.59 C50.39,30.13 50.52,30.59 50.32,30.94 C50.0793942,31.4344468 49.9206624,31.9646784 49.85,32.51 C49.7405154,33.0677961 49.5589949,33.6089961 49.31,34.12 C49.2,34.38 49.31,34.57 49.04,34.65 C48.77,34.73 48.51,35.36 48.42,35.65 C48.33,35.94 48.1,35.9 48.1,36.32 C48.1,36.74 47.92,37.18 47.97,37.41 C48.02,37.64 48.03,37.94 47.9,37.68 C47.77,37.42 47.61,37.48 47.56,37.2 C47.51,36.92 47.56,36.71 47.46,36.88 C47.36,37.05 47.2,37.04 47.09,37.25 C46.98,37.46 46.98,37.47 47.09,37.77 C47.2,38.07 47.49,38.31 47.28,38.46 C47.07,38.61 46.99,38.82 46.84,38.63 C46.69,38.44 46.84,38.33 46.68,38.43 C46.52,38.53 46.33,38.64 46.22,38.36 C46.11,38.08 46.04,37.89 45.94,37.65 C45.84,37.41 45.65,37.72 45.55,38.18 C45.45,38.64 45.21,38.65 45.13,38.79 C45.0104477,39.0090988 44.9388639,39.2511201 44.92,39.5 C44.92,39.65 44.92,39.8 44.86,39.97 C44.8535758,40.1113796 44.9125885,40.2478466 45.02,40.34 C44.88,40.34 44.81,40.34 44.81,40.57 C44.81,41.65 45.65,42.63 46.16,43.44 C46.67,44.25 46.86,44.93 46.36,45.01 C46.09,45.01 45.16,43.51 44.08,42.16 C43,40.81 42.49,40.24 42.08,40.34 C41.31,40.55 39.92,39.19 38.82,38.44 L39.37,38.5 C39.4936773,38.511671 39.6146331,38.4587528 39.69,38.36 C39.81,38.2 39.96,38.06 39.82,38.02 C39.68,37.98 39.65,37.84 39.58,37.91 C39.51,37.98 39.58,38.04 39.42,38.1 C39.3157143,38.1670456 39.1939648,38.2018312 39.07,38.2 C38.94,38.2 38.98,38.14 38.86,38.01 C38.6650675,37.8335413 38.4462513,37.6854196 38.21,37.57 C37.96,37.44 37.87,37.44 37.76,37.32 C37.65,37.2 37.6,37.32 37.45,37.09 C37.3541115,36.9534993 37.2830248,36.8011705 37.24,36.64 C37.24,36.5 36.99,35.64 36.92,35.41 C36.85,35.18 36.82,35.31 36.67,34.92 C36.5700392,34.6836889 36.4897664,34.4395257 36.43,34.19 C36.37,33.92 36.21,33.84 36.23,33.5 C36.25,33.16 36.23,33.09 36.23,32.91 C36.23,32.73 36.23,32.84 36.32,32.73 C36.41,32.62 36.32,32.73 36.43,32.85 C36.54,32.97 36.56,33.05 36.61,33.03 C36.66,33.01 36.61,32.92 36.61,32.7 C36.6198781,32.5701876 36.6198781,32.4398124 36.61,32.31 C36.61,32.09 36.78,31.99 36.61,32.05 C36.44,32.11 36.48,32 36.3,32.17 C36.12,32.34 36.17,32.24 36.06,32.43 C35.9808242,32.5461501 35.9138048,32.6701358 35.86,32.8 C35.76,33.04 35.52,33.19 35.77,32.74 C35.9732112,32.3958846 36.1934857,32.0621353 36.43,31.74 C36.5558481,31.5649677 36.6630951,31.3772855 36.75,31.18 C36.75,31.04 36.81,30.7 36.75,30.62 C36.5039428,30.1677444 36.4361588,29.6397426 36.56,29.14 C36.76,28.54 36.97,28.39 36.97,28.06 C37.0550646,27.565408 37.28877,27.1084616 37.64,26.75 C37.92,26.51 38.21,25.98 38.42,25.75 C38.6419166,25.4754168 38.9132521,25.2447816 39.22,25.07 C39.5429369,24.8592726 39.876731,24.665672 40.22,24.49 C40.74,24.29 41.59,24 41.91,23.89 C42.23,23.78 42.29,23.67 42.65,23.63 L43.5,23.53 C43.8279318,23.4672326 44.1655559,23.5722712 44.4,23.81 L44.86,24.17 C44.9631944,24.2187102 45.0702222,24.2588456 45.18,24.29 C45.62,24.36 46.18,24.1 46.5,24.29 C47.0340116,24.5587663 47.5313931,24.8948348 47.98,25.29 C48.53,25.83 48.22,25.7 48.63,26.13 C49.04,26.56 49.27,26.5 49.39,26.75 C49.4934265,27.0706328 49.6379632,27.3765127 49.82,27.66 C50.07,27.93 50.1,27.66 50.27,28.27 C50.4394955,28.6880667 50.504705,29.1411014 50.46,29.59 Z" id="Shape" fill="#FFFFFF"></path>
                        <path d="M104.82,67.77 C104.57,68.43 104.32,68.92 104.1,68.99 C103.35,69.23 103.32,70.28 104.21,70.71 C105.1,71.14 104.72,74.41 105.14,74.86 C105.19,74.92 105.23,74.93 105.26,74.86 C105.44,74.59 105.16,72.48 105.56,70.86 C106.000751,68.453284 106.135152,66.0004642 105.96,63.56 C105.659322,64.9836184 105.278719,66.3891765 104.82,67.77 Z" id="Shape" fill="#FFFFFF"></path>
                        <path d="M133.29,74.2 C133.266957,73.1857819 133.56057,72.1895945 134.13,71.35 C134.77,70.21 135.48,69.24 135.13,68.68 C134.63,67.85 134.26,67.8 133.85,67.19 C133.429574,66.488142 133.119299,65.7259448 132.93,64.93 C133.12,67.62 132.47,71.62 133.29,74.2 Z" id="Shape" fill="#FFFFFF"></path>
                        <path d="M119.65,45.11 C120.815038,44.1146146 121.826034,42.95197 122.65,41.66 C122.572793,41.2947574 122.529277,40.9231984 122.52,40.55 C122.5033,39.472358 122.624278,38.3969944 122.88,37.35 C123.080723,37.2576712 123.299061,37.2099097 123.52,37.21 C123.99,37.21 124.12,34.84 124.18,34.27 C124.372221,33.1490814 124.489149,32.0165468 124.53,30.88 C124.53,29.48 123.53,26.88 122.79,26.97 C122.05,27.06 122.12,25.23 121.49,25.64 C120.86,26.05 119.95,24.99 119.26,24.47 C118.42,23.47 118.52,25.1 117.45,24.69 C116.38,24.28 116.36,25.69 115.31,25.78 C114.26,25.87 114.72,27.06 113.69,27.32 C112.66,27.58 113.81,29.22 113.13,30.7 C112.45,32.18 113.13,33.45 112.88,34.35 C112.506074,35.2039956 112.55042,36.1832952 113,37 C113.52,38 113.89,41.32 114.79,41.35 C115.19,41.35 114.79,41.88 114.57,42.16 C115.13,42.76 115.43,43.16 116.57,44.38 C117.71,45.6 117.92,46.42 119.65,45.11 Z" id="Shape" fill="#FFFFFF"></path>
                        <path d="M130.83,91.92 C131.06,89.74 131.23,87.55 131.38,87.92 C131.59,88.44 132.3,86.92 132.9,86.4 C133.346843,85.8153222 133.639174,85.1274853 133.75,84.4 C134.139314,84.3309971 134.534935,84.3041754 134.93,84.32 L135.09,84.32 C135.9,84.32 136.02,83.78 136.5,82.94 C136.98,82.1 140.23,76.24 141.6,73.83 C142.97,71.42 142.54,67.67 140.86,65.01 C139.18,62.35 135.48,52.51 134.73,49.57 C134.490132,48.2840499 133.701378,47.1666492 132.57,46.51 C131.761354,46.0959644 130.894976,45.8060478 130,45.65 C127.835362,44.998255 125.71999,44.1928764 123.67,43.24 L123.55,43.08 L123.55,43.32 C123.43,45.26 123.49,51.91 123.77,56.32 C124.05,60.73 123.59,63.22 124.54,66.79 C125.49,70.36 125.74,72.39 126.84,74.5 C127.94,76.61 128.64,78.13 128.64,78.13 C128.64,78.13 125.48,77.97 122.23,78.13 C121.11,78.2 119.65,78.35 118.23,78.5 C117.82,80.57 117.17,80.5 116.43,81.56 C115.54,82.9 115.43,82.96 114.43,81.56 C113.757688,80.8316912 113.26762,79.9543673 113,79 C112.584697,79.0476768 112.165303,79.0476768 111.75,79 C111.02781,78.8303932 110.32433,78.5892002 109.65,78.28 C110.476683,75.9953826 111.144933,73.6565079 111.65,71.28 C112.581473,66.8068265 112.94767,62.2344054 112.74,57.67 C112.43,52.73 112.01,48.05 112.82,45.46 C113.11,44.53 113.32,43.83 113.47,43.33 C113.35,43.43 113.47,43.33 113.47,43.33 L113.53,43.27 C112.72,43.99 110.2,45.11 106.7,45.81 C105.609176,45.9797513 104.54625,46.2959381 103.54,46.75 C102.72,47.18 102.54,47.64 102.54,48.17 C102.6,49.17 101.79,51.47 101.05,53.53 C100.31,55.59 100.47,56.53 99.93,58.58 C99.39,60.63 99.02,63.9 98.56,65.74 C98.1,67.58 98.15,71.32 97.8,73.45 C97.45,75.58 99.8,79.16 100.8,80.91 C101.8,82.66 102.34,85.6 102.69,85.1 C103.04,84.6 103.38,85.44 103.1,86.99 C102.82,88.54 102.88,89.59 103.6,88.87 C104.32,88.15 105.5,87.13 105.5,87.13 C105.87634,88.0656401 105.973593,89.0902646 105.78,90.08 C105.498679,91.7999866 105.338286,93.5375795 105.3,95.28 C106.81,95.37 108.3,95.42 109.84,95.42 C116.982252,95.4242499 124.075553,94.2414697 130.83,91.92 Z M132.95,64.92 C133.139299,65.7159448 133.449574,66.478142 133.87,67.18 C134.28,67.79 134.65,67.84 135.15,68.67 C135.48,69.23 134.77,70.2 134.15,71.34 C133.58057,72.1795945 133.286957,73.1757819 133.31,74.19 C132.47,71.62 133.12,67.62 133,64.93 L132.95,64.92 Z M105.56,70.92 C105.16,72.51 105.44,74.62 105.26,74.92 C105.26,74.97 105.19,74.92 105.14,74.92 C104.72,74.47 105.14,71.19 104.21,70.77 C103.28,70.35 103.35,69.29 104.1,69.05 C104.32,68.98 104.57,68.49 104.82,67.83 C105.276922,66.4655687 105.657511,65.0767521 105.96,63.67 C106.13009,66.0905638 105.995706,68.5229056 105.56,70.91 L105.56,70.92 Z" id="Shape" fill="#FFFFFF"></path>
                        <path d="M114.55,42.12 C114.24,42.45 113.75,43.01 113.55,43.23 C113.913291,42.8881298 114.247759,42.5168707 114.55,42.12 Z" id="Shape" fill="#FFFFFF"></path>
                        <polygon id="Shape" fill="#FFFFFF" points="122.75 41.96 123.55 43.05 123.55 43.05"></polygon>
                        <path d="M119.64,62.72 C119.95,59.47 120.12,53.19 119.64,51.79 C119.16,50.39 118.79,49.63 118.9,49.01 C119.01,48.39 119.9,47.77 119.9,47.77 C119.51743,47.0952568 118.957099,46.538385 118.28,46.16 L116.59,48.08 C116.59,48.08 117.59,48.32 117.32,49.08 C116.404537,52.7280386 115.690128,56.4236041 115.18,60.15 C114.32,66.01 113.26,76.24 113,77.69 C112.919981,78.1196393 112.919981,78.5603607 113,78.99 C114.29,78.99 116.24,78.74 118.17,78.53 C118.26,78.12 118.33,77.62 118.4,77 C118.76,73.31 119.33,66 119.64,62.72 Z" id="Shape" fill="#FFFFFF"></path>
                        <path d="M114.3,81.6 C115.36,83.02 115.46,82.96 116.3,81.6 C117.04,80.49 117.69,80.6 118.1,78.54 C116.17,78.75 114.22,78.95 112.93,79 C113.174239,79.9629632 113.643803,80.8541073 114.3,81.6 Z" id="Shape" fill="#FFFFFF"></path>
                        <path d="M49.86,27.63 C49.6779632,27.3465127 49.5334265,27.0406328 49.43,26.72 C49.31,26.47 49.08,26.52 48.67,26.1 C48.26,25.68 48.57,25.8 48.02,25.26 C47.5713931,24.8648348 47.0740116,24.5287663 46.54,24.26 C46.2,24.03 45.66,24.26 45.22,24.26 C45.1102222,24.2288456 45.0031944,24.1887102 44.9,24.14 L44.44,23.78 C44.2055559,23.5422712 43.8679318,23.4372326 43.54,23.5 L42.69,23.6 C42.33,23.6 42.27,23.76 41.95,23.86 C41.63,23.96 40.78,24.26 40.26,24.46 C39.916731,24.635672 39.5829369,24.8292726 39.26,25.04 C38.9532521,25.2147816 38.6819166,25.4454168 38.46,25.72 C38.25,25.91 37.96,26.44 37.68,26.72 C37.3304312,27.0690651 37.0935642,27.5149325 37,28 C37,28.33 36.79,28.48 36.59,29.08 C36.4661588,29.5797426 36.5339428,30.1077444 36.78,30.56 C36.87,30.64 36.85,30.98 36.78,31.12 C36.6930951,31.3172855 36.5858481,31.5049677 36.46,31.68 C36.2234857,32.0021353 36.0032112,32.3358846 35.8,32.68 C35.55,33.13 35.8,32.98 35.89,32.74 C35.9438048,32.6101358 36.0108242,32.4861501 36.09,32.37 C36.2,32.18 36.16,32.28 36.33,32.11 C36.5,31.94 36.43,32.05 36.64,31.99 C36.85,31.93 36.64,31.99 36.64,32.25 C36.6498781,32.3798124 36.6498781,32.5101876 36.64,32.64 C36.64,32.86 36.64,32.96 36.64,32.97 C36.64,32.98 36.55,32.91 36.46,32.79 C36.37,32.67 36.54,32.43 36.35,32.67 C36.16,32.91 36.35,32.67 36.26,32.85 C36.17,33.03 36.26,33.1 36.26,33.44 C36.26,33.78 36.4,33.86 36.46,34.13 C36.5197664,34.3795257 36.6000392,34.6236889 36.7,34.86 C36.85,35.25 36.89,35.14 36.95,35.35 C37.01,35.56 37.22,36.44 37.27,36.58 C37.3130248,36.7411705 37.3841115,36.8934993 37.48,37.03 C37.63,37.26 37.69,37.14 37.79,37.26 C37.89,37.38 37.99,37.38 38.24,37.51 C38.4762513,37.6254196 38.6950675,37.7735413 38.89,37.95 C39.01,38.08 38.97,38.13 39.1,38.14 C39.2239648,38.1418312 39.3457143,38.1070456 39.45,38.04 C39.61,37.98 39.55,37.93 39.61,37.85 C39.67,37.77 39.7,37.91 39.85,37.96 C40,38.01 39.85,38.14 39.72,38.3 C39.6446331,38.3987528 39.5236773,38.451671 39.4,38.44 L38.85,38.38 C39.95,39.13 41.34,40.49 42.11,40.28 C42.48,40.18 43.11,40.9 44.11,42.1 C45.11,43.3 46.11,45 46.39,44.95 C46.89,44.87 46.71,44.21 46.19,43.38 C45.67,42.55 44.84,41.59 44.84,40.51 C44.84,40.28 44.91,40.23 45.05,40.28 C44.9425885,40.1878466 44.8835758,40.0513796 44.89,39.91 C44.89,39.74 44.89,39.59 44.95,39.44 C44.9688639,39.1911201 45.0404477,38.9490988 45.16,38.73 C45.24,38.59 45.49,38.58 45.58,38.12 C45.67,37.66 45.87,37.36 45.97,37.59 C46.07,37.82 46.14,38.03 46.25,38.3 C46.36,38.57 46.55,38.48 46.71,38.37 C46.87,38.26 46.71,38.37 46.87,38.57 C47.03,38.77 47.09,38.57 47.31,38.4 C47.53,38.23 47.22,38.01 47.12,37.71 C47.02,37.41 47.02,37.41 47.12,37.19 C47.22,36.97 47.37,37 47.49,36.82 C47.61,36.64 47.55,36.82 47.59,37.14 C47.63,37.46 47.8,37.35 47.93,37.62 C48.06,37.89 48.05,37.62 48,37.35 C47.95,37.08 48.13,36.68 48.13,36.26 C48.13,35.84 48.35,35.85 48.45,35.59 C48.55,35.33 48.83,34.71 49.07,34.59 C49.31,34.47 49.23,34.32 49.34,34.06 C49.5889949,33.5489961 49.7705154,33.0077961 49.88,32.45 C49.9506624,31.9046784 50.1093942,31.3744468 50.35,30.88 C50.55,30.52 50.42,30.07 50.49,29.53 C50.5523953,29.0745195 50.500857,28.6106747 50.34,28.18 C50.14,27.67 50.11,27.9 49.86,27.63 Z" id="Shape" fill="#FFFFFF"></path>
                        <path d="M54.84,74.45 C54.84,73.34 56.03,74.05 55.84,72.94 C55.84,71.8 54.32,66.16 54.32,65.04 C54.32,63.1 52.82,61.99 53.72,61.83 C54.7959689,61.7751814 55.8740311,61.7751814 56.95,61.83 C60.46,60.83 59.5,57.28 59.03,55.69 C58.23,54.17 54.32,50.02 54.03,48.83 C54.03,47.54 52.11,45.54 52.11,44.36 C52.11,42.63 48.04,41.97 47.31,41.48 C46.8112543,41.1814864 46.2856211,40.9303877 45.74,40.73 C46.422802,41.1648673 47.1633946,41.5015002 47.94,41.73 C49.08,42.08 51.17,43.03 50.47,43.03 C49.77,43.03 47.63,43.54 47.47,44.94 C47.37,46.05 50.83,52.68 49.99,51.34 C49.61,50.73 48.64,48.83 48.08,47.84 C47.24,46.34 45.25,45.03 44.13,43.46 C43.3,42.29 42.96,42.29 40.8,43.46 C40.3,43.74 40.21,42.56 39.63,41.98 C38.55,40.9 37.42,40.31 36.97,39.7 C36.8,40.13 36.46,40.55 35.47,40.7 C33.9567072,40.9317681 32.8015309,42.1738933 32.68,43.7 C32.68,45.25 33.8,48.83 33.8,50.48 C33.8,51.57 33.08,52.8 34.91,53.83 C35.6057239,54.5430678 36.0302194,55.4769579 36.11,56.47 C36.11,58.66 37.64,59.12 37.87,60.3 C38.18,61.94 37.23,64.18 37.23,67.48 C37.23,68.83 36.03,71.48 36.43,79.29 C36.36,80.77 40.06,91.98 40.43,96.29 C44.5750139,94.7060423 48.8561663,93.504374 53.22,92.7 C53.4473889,91.5562606 53.6142875,90.4013227 53.72,89.24 C54.2,84.35 54.89,79.51 54.84,74.45 Z" id="Shape" fill="#FFFFFF"></path>
                        <path d="M82,54.68 L81.92,54.68 L82,54.68 Z" id="Shape" fill="#FFFFFF"></path>
                        <polygon id="Shape" fill="#FFFFFF" points="82 54.66 82 54.66 81.92 54.66"></polygon>
                        <path d="M95.1,52.3 C95.1,51.06 93.37,50.82 92.19,49.3 C90.7763264,48.0474042 89.9288332,46.2766844 89.84,44.39 L89.71,44.39 C89.91,42.85 90.29,40.04 90.29,39.99 C89.82,39.19 89.49,37.43 90.29,37.17 C90.23,37.5 89.89,37.7 90.55,37.69 C91.64,35.81 90.07,34.48 89.27,33.08 L90,33.08 C89,31.22 87.74,29.32 88.65,27.19 C88.71,27.39 88.65,27.69 88.91,27.7 C88.65,24.14 85.91,18.93 83.69,17.51 C83.1901344,17.1403538 82.6228296,16.871988 82.02,16.72 C76.02,15.26 73.53,20.48 71.55,24.83 C72.34,27.49 69.78,29.25 69.55,31.93 C69.88,32.62 69.66,32.93 69.99,33.6 C68.57,33.52 68.99,34.51 67.86,33.96 C67.45,35.05 68.96,34.21 68.54,35.31 C67.27,35.37 67,35.91 66.54,35.98 C63.74,39.62 67.33,48.64 68.91,51.86 C69.91,53.86 71.65,55.2 71.91,56.6 C73.2,62.68 66.91,68.11 66.5,74.51 C66.18,80.15 67.43,85.8 68.25,91.51 C73.6550296,91.6310573 79.0479859,92.0751831 84.4,92.84 C86.75,84.64 89.4,76.76 88.46,66.07 C89.29,65.6 90.01,66.07 90.19,65.61 C91.1537795,64.286303 91.614645,62.6626384 91.49,61.03 C91.38,60.11 90.73,59.76 90.82,58.88 C92.1404511,58.7375332 93.413644,58.3074466 94.55,57.62 C95.1168801,55.9075173 95.3045502,54.0922358 95.1,52.3 Z M83.29,39.14 C82.67,40.62 83.29,42.14 83.05,42.53 C81.54,42.53 81.75,39.75 78.72,37.84 C75.88,35.36 77.72,34.5 76.37,34.5 C74.47,34.5 74.27,36.5 73.22,36.6 C71.05,36.35 71.43,35.96 71.43,35.6 C71.43,35.24 73.9,36.84 74.83,33.13 C75.83,33.13 75.69,32.13 76.49,33.03 C76.8,33.37 79.49,37.52 80.49,37.52 C80.74,36.96 79.61,34.43 80.8,34.43 C81.51,34.43 82.21,36.1 82.8,36.84 C83.39,37.58 84,37.51 83.29,39.14 Z" id="Shape" fill="#FFFFFF"></path>
                    </g>
                </g>
            </g>
        </g>
    </g>
</svg>