<?xml version="1.0" encoding="UTF-8"?>
<svg width="196px" height="196px" viewBox="0 0 196 196" version="1.1" xmlns="http://www.w3.org/2000/svg" xmlns:xlink="http://www.w3.org/1999/xlink">
    <!-- Generator: Sketch 50.2 (55047) - http://www.bohemiancoding.com/sketch -->
    <title>Strategic-Relationships-Path</title>
    <desc>Created with Sketch.</desc>
    <defs>
        <linearGradient x1="50.5718454%" y1="99.9927477%" x2="49.4199536%" y2="-0.000617803793%" id="linearGradient-1">
            <stop stop-color="#EDBC46" offset="0%"></stop>
            <stop stop-color="#EDA44C" offset="27%"></stop>
            <stop stop-color="#C48031" offset="61%"></stop>
            <stop stop-color="#D89D3B" offset="80%"></stop>
            <stop stop-color="#FFED95" offset="100%"></stop>
        </linearGradient>
        <linearGradient x1="0.00539051269%" y1="50.0000001%" x2="99.9999997%" y2="50.0000001%" id="linearGradient-2">
            <stop stop-color="#EDBC46" offset="0%"></stop>
            <stop stop-color="#EDA44C" offset="27%"></stop>
            <stop stop-color="#C48031" offset="61%"></stop>
            <stop stop-color="#D89D3B" offset="80%"></stop>
            <stop stop-color="#FFED95" offset="100%"></stop>
        </linearGradient>
        <radialGradient cx="50.7311572%" cy="49.821546%" fx="50.7311572%" fy="49.821546%" r="49.9457792%" id="radialGradient-3">
            <stop stop-color="#7D1416" offset="0%"></stop>
            <stop stop-color="#981819" offset="9%"></stop>
            <stop stop-color="#C61F1F" offset="26%"></stop>
            <stop stop-color="#E22323" offset="39%"></stop>
            <stop stop-color="#ED2524" offset="46%"></stop>
            <stop stop-color="#EC1E24" offset="87%"></stop>
            <stop stop-color="#DB1C22" offset="89%"></stop>
            <stop stop-color="#A41619" offset="94%"></stop>
            <stop stop-color="#811214" offset="98%"></stop>
            <stop stop-color="#741112" offset="100%"></stop>
        </radialGradient>
        <radialGradient cx="48.8808393%" cy="50%" fx="48.8808393%" fy="50%" r="47.9838479%" id="radialGradient-4">
            <stop stop-color="#5E0000" offset="0%"></stop>
            <stop stop-color="#5E0000" offset="61%"></stop>
            <stop stop-color="#5E0000" offset="87%"></stop>
            <stop stop-color="#BE1E2D" offset="100%"></stop>
        </radialGradient>
        <linearGradient x1="1.36326081%" y1="61.4033413%" x2="98.2649408%" y2="34.5584726%" id="linearGradient-5">
            <stop stop-color="#4D1211" offset="0%"></stop>
            <stop stop-color="#521312" offset="2%"></stop>
            <stop stop-color="#601414" offset="4%"></stop>
            <stop stop-color="#781718" offset="6%"></stop>
            <stop stop-color="#991B1D" offset="8%"></stop>
            <stop stop-color="#C32024" offset="11%"></stop>
            <stop stop-color="#D82327" offset="12%"></stop>
            <stop stop-color="#AE524F" offset="29%"></stop>
            <stop stop-color="#912829" offset="43%"></stop>
            <stop stop-color="#851719" offset="50%"></stop>
            <stop stop-color="#D52427" offset="78%"></stop>
        </linearGradient>
        <linearGradient x1="1.36363636%" y1="61.3937947%" x2="98.292011%" y2="34.5584726%" id="linearGradient-6">
            <stop stop-color="#35121F" offset="0%"></stop>
            <stop stop-color="#381224" offset="3%"></stop>
            <stop stop-color="#411032" offset="6%"></stop>
            <stop stop-color="#500E4A" offset="9%"></stop>
            <stop stop-color="#620C66" offset="12%"></stop>
            <stop stop-color="#AA5EA5" offset="29%"></stop>
            <stop stop-color="#994B96" offset="33%"></stop>
            <stop stop-color="#711D73" offset="45%"></stop>
            <stop stop-color="#620C66" offset="50%"></stop>
            <stop stop-color="#501A41" offset="70%"></stop>
        </linearGradient>
        <linearGradient x1="39.1402048%" y1="50.5092212%" x2="63.5729352%" y2="49.2785175%" id="linearGradient-7">
            <stop stop-color="#9F1D21" offset="0%"></stop>
            <stop stop-color="#A21E21" offset="12%"></stop>
            <stop stop-color="#994845" offset="29%"></stop>
            <stop stop-color="#7F2222" offset="60%"></stop>
            <stop stop-color="#731112" offset="78%"></stop>
            <stop stop-color="#761213" offset="85%"></stop>
            <stop stop-color="#811517" offset="90%"></stop>
            <stop stop-color="#931A1C" offset="96%"></stop>
            <stop stop-color="#A21E21" offset="99%"></stop>
        </linearGradient>
        <linearGradient x1="39.4534837%" y1="50.3424589%" x2="62.5058067%" y2="49.1247938%" id="linearGradient-8">
            <stop stop-color="#501A41" offset="0%"></stop>
            <stop stop-color="#521846" offset="4%"></stop>
            <stop stop-color="#591354" offset="8%"></stop>
            <stop stop-color="#620C66" offset="12%"></stop>
            <stop stop-color="#AA5EA5" offset="29%"></stop>
            <stop stop-color="#994B96" offset="33%"></stop>
            <stop stop-color="#711D73" offset="45%"></stop>
            <stop stop-color="#620C66" offset="50%"></stop>
            <stop stop-color="#751B53" offset="78%"></stop>
            <stop stop-color="#721B51" offset="85%"></stop>
            <stop stop-color="#671B4C" offset="92%"></stop>
            <stop stop-color="#551A43" offset="98%"></stop>
            <stop stop-color="#501A41" offset="99%"></stop>
        </linearGradient>
    </defs>
    <g id="Page-1" stroke="none" stroke-width="1" fill="none" fill-rule="evenodd">
        <g id="Toastmasters-Pathways-Infographic" transform="translate(-701.000000, -6570.000000)" fill-rule="nonzero">
            <g id="10-Paths" transform="translate(0.000000, 4217.000000)">
                <g id="Strategic-Relationships-Path" transform="translate(700.000000, 2352.000000)">
                    <circle id="Oval" fill="url(#linearGradient-1)" transform="translate(99.005257, 98.998526) rotate(-89.340000) translate(-99.005257, -98.998526) " cx="99.0052573" cy="98.9985263" r="97.5"></circle>
                    <path d="M191.75,99 C191.744477,150.223108 150.216443,191.743681 98.9933341,191.74 C47.7702255,191.736318 6.2481599,150.209776 6.2500006,98.986667 C6.2518413,47.7635583 47.7768913,6.2400003 99,6.24 C123.600562,6.23999986 147.193403,16.0132195 164.58769,33.4093815 C181.981976,50.8055435 191.752652,74.399438 191.75,99 Z" id="Shape" fill="url(#linearGradient-2)"></path>
                    <circle id="Oval" fill="url(#radialGradient-3)" transform="translate(98.999220, 99.000341) rotate(-0.120000) translate(-98.999220, -99.000341) " cx="98.99922" cy="99.0003413" r="88.23"></circle>
                    <circle id="Oval" fill="url(#radialGradient-4)" transform="translate(100.324710, 98.326168) rotate(-89.640000) translate(-100.324710, -98.326168) " cx="100.32471" cy="98.3261677" r="77.38"></circle>
                    <g id="Group" transform="translate(26.000000, 44.000000)">
                        <g opacity="0.75" style="mix-blend-mode: multiply;" transform="translate(5.000000, 5.000000)" fill="#231F20" id="Shape">
                            <path d="M5.52,21.2 C5.52,21.2 11.63,10.6 37.16,7.2 C62.88,3.78 80.79,15.56 111.59,10.88 C122.45,9.23 130.54,7.38 132.59,0.96 L150.73,81.09 C150.73,81.09 135.73,95.82 110.01,95.82 C84.29,95.82 59.56,82.12 23.13,105.7 L5.52,21.2 Z"></path>
                            <path d="M5.44,20.84 C5.44,20.84 11.55,10.24 37.08,6.84 C62.79,3.43 80.71,15.21 111.5,10.53 C122.37,8.88 130.5,7.02 132.5,0.61 L150.63,80.73 C150.63,80.73 135.63,95.46 109.92,95.46 C84.21,95.46 59.47,81.77 23.04,105.34 L5.44,20.84 Z"></path>
                            <path d="M4.81,17.4 C4.81,17.4 4.19,16.4 2.18,16.85 C0.17,17.3 0.41,18.49 0.41,18.49 L19.8912891,120.00168 C19.8912891,120.39168 20.8312891,120.84168 23.0712891,120.47168 C24.0779557,120.305013 24.8046224,119.948346 25.2512891,119.40168 C25.2499549,119.383266 18.4361919,85.3827059 4.81,17.4 Z"></path>
                            <path d="M20.63,105.47 C21.92,105.17 22.98,105.11 23.08,105.35 L5.45,20.63 C5.27,20.31 4.27,20.27 3.12,20.56 C1.97,20.85 1,21.4 1.12,21.77 L18.34,106.6 C18.28,106.34 19.31,105.78 20.63,105.47 Z"></path>
                        </g>
                        <path d="M5.42,21.1 C5.42,21.1 11.54,10.51 37.07,7.1 C62.78,3.68 80.7,15.46 111.49,10.78 C122.35,9.13 130.49,7.28 132.49,0.86 L150.66,81 C150.66,81 135.66,95.74 109.95,95.74 C84.24,95.74 59.49,82 23.06,105.61 L5.42,21.1 Z" id="Shape" fill="url(#linearGradient-5)"></path>
                        <path d="M5.34,20.75 C5.34,20.75 11.46,10.15 36.98,6.75 C62.7,3.33 80.61,15.11 111.41,10.43 C122.27,8.78 130.41,6.93 132.41,0.51 L150.54,80.64 C150.54,80.64 135.54,95.37 109.82,95.37 C84.1,95.37 59.41,81.68 23,105.26 L5.34,20.75 Z" id="Shape" fill="url(#linearGradient-6)"></path>
                        <path d="M2.42677734,6.11867188 C2.42677734,6.11867188 4.09,16.3 2.08,16.76 C0.07,17.22 0.32,18.39 0.32,18.39 L21.7667773,125.928672 C21.7667773,126.308672 22.6967773,126.758672 24.9467773,126.388672 C26.4567773,126.138672 27.1149802,125.271046 27.1067773,125.248672 L2.42677734,6.11867188 Z" id="Shape" fill="url(#linearGradient-7)"></path>
                        <path d="M20.53,105.38 C21.83,105.08 22.89,105.02 22.98,105.26 L5.36,20.54 C5.19,20.21 4.19,20.18 3.04,20.46 C1.89,20.74 0.92,21.3 1.04,21.67 L18.24,106.5 C18.19,106.25 19.22,105.69 20.53,105.38 Z" id="Shape" fill="url(#linearGradient-8)"></path>
                    </g>
                    <path d="M147.46,73.73 L147.46,99.73 C147.46,99.73 141.9,100.83 140.75,100.97 C139.6,101.11 136.02,102.27 133.42,99.78 C129.42,95.93 115.17,81.78 115.17,81.78 C115.17,81.78 112.71,79.37 108.77,81.45 C105.15,83.36 99.77,86.15 97.54,87.24 C96.0138442,88.1347659 94.1356928,88.1853081 92.5636233,87.3739174 C90.9915538,86.5625267 89.9447511,85.0023307 89.79,83.24 C89.79,81.13 91.11,79.7 93,78.64 C98.11,75.54 108.88,69.49 113.37,67.11 C116.09,65.66 118.06,65.54 121.8,68.69 C126.42,72.57 130.52,76.1 130.52,76.1 C131.525101,76.8152143 132.790883,77.0596161 133.99,76.77 C139.23,75.66 147.46,73.77 147.46,73.77 L147.46,73.73 Z M90.76,117.73 C91.5231105,116.10445 91.2563611,114.181855 90.0795226,112.825462 C88.9026841,111.469069 87.0369356,110.933804 85.32,111.46 C85.8438509,109.852331 85.4617756,108.087144 84.32,106.84 C83.1044874,105.673136 81.3644116,105.232418 79.74,105.68 C80.2682272,104.072557 79.8856669,102.305128 78.74,101.06 C76.6760169,99.1453723 73.4607197,99.2297517 71.5,101.25 C69.39,103.25 68.03,106.96 69.92,109.13 C71.81,111.3 73.92,109.97 75.62,109.6 C75.16,111.23 73.79,112.76 75.48,114.9 C77.17,117.04 79.48,115.75 81.19,115.37 C80.73,117.01 79.41,118.68 81.04,120.67 C82.67,122.66 85.38,121.6 87.16,121.05 C86.47,122.82 85,124.72 86.89,126.85 C88.78,128.98 93.13,128.01 95.26,125.98 C96.2748873,125.089958 96.8938024,123.832583 96.980108,122.485467 C97.0664135,121.13835 96.6130117,119.812276 95.72,118.8 C94.3954457,117.51585 92.4540965,117.100401 90.72,117.73 L90.76,117.73 Z M129.59,104.22 L113.16,87.78 C111.605586,86.3391717 109.349103,85.9474211 107.4,86.78 C105.09,87.78 102.13,89.17 99.9,90.22 C98.3711632,91.1278769 96.6668592,91.7005231 94.9,91.9 C91.0140852,91.9889701 87.5571559,89.4456103 86.4856094,85.7092969 C85.4140629,81.9729836 86.997583,77.9840609 90.34,76 C93.76,73.64 101.62,69.45 101.62,69.45 C101.62,69.45 99.23,66.45 93.98,66.45 C88.73,66.45 77.76,73.64 77.76,73.64 C75.4088139,74.8673089 72.622866,74.9411088 70.21,73.84 L61.66,70.84 L61.66,100.56 C61.66,100.56 64.1,101.26 66.29,102.16 C66.7903518,100.724823 67.6150727,99.4244331 68.7,98.36 C72.34,94.9 78.37,94.86 81.7,98.27 C82.6672557,99.2921325 83.3559039,100.545472 83.7,101.91 C85.0312934,102.316927 86.2384996,103.052945 87.21,104.05 C88.1990977,105.063779 88.9058203,106.318643 89.26,107.69 C90.594347,108.096593 91.8048741,108.832539 92.78,109.83 C93.8555086,110.939808 94.6060617,112.323315 94.95,113.83 C96.3391453,114.235805 97.5998846,114.993627 98.61,116.03 C100.518902,118.021169 101.362333,120.804118 100.88,123.52 C100.88,123.52 100.88,123.52 100.88,123.52 C100.88,123.52 102.12,124.9 102.88,125.65 C104.361804,127.061242 106.698839,127.032746 108.145793,125.585793 C109.592746,124.138839 109.621242,121.801804 108.21,120.32 C108.21,120.32 102.92,114.78 103.34,114.32 C103.76,113.86 110.43,120.84 110.56,120.97 C112.041804,122.381242 114.378839,122.352746 115.825793,120.905793 C117.272746,119.458839 117.301242,117.121804 115.89,115.64 L115.4,115.17 C115.4,115.17 108.79,109.27 109.29,108.77 C109.79,108.27 118.02,115.93 118.03,115.93 C119.467832,117.311399 121.739116,117.313517 123.179524,115.934804 C124.619931,114.55609 124.717176,112.286888 123.4,110.79 C123.4,110.71 117.13,104.19 117.62,103.7 C118.11,103.21 124.29,109.56 124.3,109.57 C125.253899,110.522113 126.643284,110.893002 127.944788,110.542958 C129.246291,110.192913 130.262184,109.175115 130.609788,107.872958 C130.957392,106.5708 130.583899,105.182113 129.63,104.23 L129.56,104.23 L129.59,104.22 Z" id="Shape" fill="#FFFFFF"></path>
                </g>
            </g>
        </g>
    </g>
</svg>