<?xml version="1.0" encoding="UTF-8"?>
<svg width="196px" height="196px" viewBox="0 0 196 196" version="1.1" xmlns="http://www.w3.org/2000/svg" xmlns:xlink="http://www.w3.org/1999/xlink">
    <!-- Generator: Sketch 50.2 (55047) - http://www.bohemiancoding.com/sketch -->
    <title>Team-Collaboration-Path</title>
    <desc>Created with Sketch.</desc>
    <defs>
        <linearGradient x1="50.5889204%" y1="99.9944056%" x2="49.4370286%" y2="0.00104009615%" id="linearGradient-1">
            <stop stop-color="#EDBC46" offset="0%"></stop>
            <stop stop-color="#EDA44C" offset="27%"></stop>
            <stop stop-color="#C48031" offset="61%"></stop>
            <stop stop-color="#D89D3B" offset="80%"></stop>
            <stop stop-color="#FFED95" offset="100%"></stop>
        </linearGradient>
        <linearGradient x1="0.00539051269%" y1="50.0000001%" x2="99.9999997%" y2="50.0000001%" id="linearGradient-2">
            <stop stop-color="#EDBC46" offset="0%"></stop>
            <stop stop-color="#EDA44C" offset="27%"></stop>
            <stop stop-color="#C48031" offset="61%"></stop>
            <stop stop-color="#D89D3B" offset="80%"></stop>
            <stop stop-color="#FFED95" offset="100%"></stop>
        </linearGradient>
        <radialGradient cx="48.3906834%" cy="51.1396917%" fx="48.3906834%" fy="51.1396917%" r="49.9457792%" id="radialGradient-3">
            <stop stop-color="#7D1416" offset="0%"></stop>
            <stop stop-color="#981819" offset="9%"></stop>
            <stop stop-color="#C61F1F" offset="26%"></stop>
            <stop stop-color="#E22323" offset="39%"></stop>
            <stop stop-color="#ED2524" offset="46%"></stop>
            <stop stop-color="#EC1E24" offset="87%"></stop>
            <stop stop-color="#DB1C22" offset="89%"></stop>
            <stop stop-color="#A41619" offset="94%"></stop>
            <stop stop-color="#811214" offset="98%"></stop>
            <stop stop-color="#741112" offset="100%"></stop>
        </radialGradient>
        <radialGradient cx="47.0857114%" cy="50%" fx="47.0857114%" fy="50%" r="50%" id="radialGradient-4">
            <stop stop-color="#5E0000" offset="0%"></stop>
            <stop stop-color="#5E0000" offset="61%"></stop>
            <stop stop-color="#5E0000" offset="87%"></stop>
            <stop stop-color="#BE1E2D" offset="100%"></stop>
        </radialGradient>
        <linearGradient x1="1.36326081%" y1="61.4033413%" x2="98.2649408%" y2="34.5584726%" id="linearGradient-5">
            <stop stop-color="#4D1211" offset="0%"></stop>
            <stop stop-color="#521312" offset="2%"></stop>
            <stop stop-color="#601414" offset="4%"></stop>
            <stop stop-color="#781718" offset="6%"></stop>
            <stop stop-color="#991B1D" offset="8%"></stop>
            <stop stop-color="#C32024" offset="11%"></stop>
            <stop stop-color="#D82327" offset="12%"></stop>
            <stop stop-color="#AE524F" offset="29%"></stop>
            <stop stop-color="#912829" offset="43%"></stop>
            <stop stop-color="#851719" offset="50%"></stop>
            <stop stop-color="#D52427" offset="78%"></stop>
        </linearGradient>
        <linearGradient x1="1.36363636%" y1="61.3937947%" x2="98.292011%" y2="34.5584726%" id="linearGradient-6">
            <stop stop-color="#B9DB01" offset="0%"></stop>
            <stop stop-color="#B7DA06" offset="3%"></stop>
            <stop stop-color="#B1D614" offset="6%"></stop>
            <stop stop-color="#A8D12C" offset="9%"></stop>
            <stop stop-color="#9ECB43" offset="12%"></stop>
            <stop stop-color="#E4E416" offset="29%"></stop>
            <stop stop-color="#CADF0A" offset="40%"></stop>
            <stop stop-color="#B9DB01" offset="50%"></stop>
            <stop stop-color="#B9DB01" offset="70%"></stop>
        </linearGradient>
        <linearGradient x1="39.1402048%" y1="50.5092212%" x2="63.5729352%" y2="49.2785175%" id="linearGradient-7">
            <stop stop-color="#9F1D21" offset="0%"></stop>
            <stop stop-color="#A21E21" offset="12%"></stop>
            <stop stop-color="#994845" offset="29%"></stop>
            <stop stop-color="#7F2222" offset="60%"></stop>
            <stop stop-color="#731112" offset="78%"></stop>
            <stop stop-color="#761213" offset="85%"></stop>
            <stop stop-color="#811517" offset="90%"></stop>
            <stop stop-color="#931A1C" offset="96%"></stop>
            <stop stop-color="#A21E21" offset="99%"></stop>
        </linearGradient>
        <linearGradient x1="39.4534837%" y1="50.3424589%" x2="62.5058067%" y2="49.1247938%" id="linearGradient-8">
            <stop stop-color="#B9DB01" offset="0%"></stop>
            <stop stop-color="#BBDC06" offset="3%"></stop>
            <stop stop-color="#C2DF14" offset="5%"></stop>
            <stop stop-color="#CEE42C" offset="8%"></stop>
            <stop stop-color="#DEEA4C" offset="11%"></stop>
            <stop stop-color="#E2EC55" offset="12%"></stop>
            <stop stop-color="#FAF19D" offset="29%"></stop>
            <stop stop-color="#F1EE8B" offset="38%"></stop>
            <stop stop-color="#E8EC7A" offset="50%"></stop>
            <stop stop-color="#E2EC55" offset="78%"></stop>
            <stop stop-color="#E0EB52" offset="83%"></stop>
            <stop stop-color="#DBE947" offset="88%"></stop>
            <stop stop-color="#D2E535" offset="92%"></stop>
            <stop stop-color="#C6E01C" offset="96%"></stop>
            <stop stop-color="#B9DB01" offset="99%"></stop>
        </linearGradient>
    </defs>
    <g id="Page-1" stroke="none" stroke-width="1" fill="none" fill-rule="evenodd">
        <g id="Toastmasters-Pathways-Infographic" transform="translate(-979.000000, -6570.000000)">
            <g id="10-Paths" transform="translate(0.000000, 4217.000000)">
                <g id="Team-Collaboration-Path" transform="translate(978.000000, 2352.000000)">
                    <circle id="Oval" fill="url(#linearGradient-1)" fill-rule="nonzero" transform="translate(99.005257, 98.998526) rotate(-89.340000) translate(-99.005257, -98.998526) " cx="99.0052573" cy="98.9985263" r="97.5"></circle>
                    <path d="M191.75,99 C191.744477,150.223108 150.216443,191.743681 98.9933341,191.74 C47.7702255,191.736318 6.2481599,150.209776 6.2500006,98.986667 C6.2518413,47.7635583 47.7768913,6.2400003 99,6.24 C123.600562,6.23999986 147.193403,16.0132195 164.58769,33.4093815 C181.981976,50.8055435 191.752652,74.399438 191.75,99 Z" id="Shape" fill="url(#linearGradient-2)" fill-rule="nonzero"></path>
                    <circle id="Oval" fill="url(#radialGradient-3)" fill-rule="nonzero" transform="translate(98.999220, 99.000341) rotate(-0.120000) translate(-98.999220, -99.000341) " cx="98.99922" cy="99.0003413" r="88.23"></circle>
                    <circle id="Oval" fill="url(#radialGradient-4)" fill-rule="nonzero" transform="translate(100.324710, 98.326168) rotate(-89.640000) translate(-100.324710, -98.326168) " cx="100.32471" cy="98.3261677" r="77.38"></circle>
                    <g id="Group" transform="translate(26.000000, 44.000000)">
                        <g opacity="0.75" style="mix-blend-mode: multiply;" transform="translate(5.000000, 5.000000)" fill="#231F20" id="Shape">
                            <path d="M5.52,21.2 C5.52,21.2 11.63,10.6 37.16,7.2 C62.88,3.78 80.79,15.56 111.59,10.88 C122.45,9.23 130.54,7.38 132.59,0.96 L150.73,81.09 C150.73,81.09 135.73,95.82 110.01,95.82 C84.29,95.82 59.56,82.12 23.13,105.7 L5.52,21.2 Z" fill-rule="nonzero"></path>
                            <path d="M5.44,20.84 C5.44,20.84 11.55,10.24 37.08,6.84 C62.79,3.43 80.71,15.21 111.5,10.53 C122.37,8.88 130.5,7.02 132.5,0.61 L150.63,80.73 C150.63,80.73 135.63,95.46 109.92,95.46 C84.21,95.46 59.47,81.77 23.04,105.34 L5.44,20.84 Z" fill-rule="nonzero"></path>
                            <path d="M0.935078125,0.22609375 C0.935078125,0.22609375 4.19,16.4 2.18,16.85 C0.17,17.3 0.41,18.49 0.41,18.49 L20.2750781,120.026094 C20.2750781,120.416094 21.2150781,120.866094 23.4550781,120.496094 C24.4617448,120.329427 25.1817448,119.946094 25.6150781,119.346094 L0.935078125,0.22609375 Z" fill-rule="nonzero"></path>
                            <path d="M20.63,105.47 C21.92,105.17 22.98,105.11 23.08,105.35 L5.45,20.63 C5.27,20.31 4.27,20.27 3.12,20.56 C1.97,20.85 1,21.4 1.12,21.77 L18.34,106.6 C18.28,106.34 19.31,105.78 20.63,105.47 Z" fill-rule="nonzero"></path>
                            <g transform="translate(33.000000, 15.000000)">
                                <path d="M66.41,9.52 L66.52,11.95 L66.4,12.95 L67.21,13.54 L67.44,15.81 L68.8,16.17 L68,17.77 L65.1,18.53 C65.1,18.53 61.6,27.53 61.57,27.85 C61.5713904,28.9895564 61.6381668,30.1280942 61.77,31.26 L69.36,34.71 L73.94,38.87 L77.99,44.57 L80.9,37.07 L83.29,36.01 L81.67,33.6 C81.67,33.6 79.87,29.87 80.79,27.5 C79.04,26.75 80.02,24.16 80.02,24.16 C80.19,23.59 81.55,22.8 82.55,22.45 C81.73,19.35 80.26,16.1 76.24,15.85 C75.13,15.78 74.73,14.51 74.73,14.51 L74.06,14.11 L74.06,12.44 C74.06,12.44 74.85,7.6 73.36,6.35 C72.61,5.7 67.7,4.06 65.61,6.89 C63.52,9.72 66.41,9.52 66.41,9.52 Z M70.08,16.14 L70.52,16.06 L70.71,17.19 L74.08,16.5 L70.75,17.5 L68.93,20.5 L70.15,17.5 L70.08,16.14 Z M69.45,17.54 L68.63,19.64 L67.94,18.88 L69.24,16.27 L69.45,17.54 Z M94,51.94 L94.77,49.21 L96.72,46.21 L96.81,37.93 L93.66,36.28 C93.66,36.28 95.66,35.88 96.09,33 C96.52,30.12 93.41,31 93.73,30.11 C94.05,29.22 93.73,27.31 91.73,24.24 C89.73,21.17 85.01,22.98 82.2,24.32 C79.39,25.66 82.46,27.2 82.46,27.2 C81.9307032,29.3558386 82.2606261,31.6330239 83.38,33.55 L85.38,34.23 L85.43,35.68 L84.5,35.98 L84.64,36.98 L81.82,38.69 C81.82,38.69 79.3,47.04 79.69,48.82 C80.08,50.6 82.84,53.77 82.84,53.77 C82.84,53.77 87.29,56.17 87.94,59.07 C88.94,64.59 86.25,76.95 86.25,76.95 L97.8,57.44 L94,51.94 Z M13,29.18 L10.35,30.73 C10.35,30.73 10.16,31.43 9.89,32.45 C11.2568694,32.6278409 12.5083517,33.3088469 13.4,34.36 C14.47,36.36 12.69,38.26 12.69,38.26 L13.22,41.52 L13.86,45.44 L16.49,45.12 L18.4,47.26 L20.74,50.67 L22.24,46.19 L25.42,41.1 L29.76,36.93 L23.93,28.61 L21.03,27.91 L20.89,27.05 L20,27.05 L19.64,25.79 L21.22,24.65 C21.6651107,22.6916781 21.3316318,20.6370182 20.29,18.92 C20.29,18.92 22.51,16.76 19.72,16.36 C16.93,15.96 12.34,15.7 11.48,18.88 C10.62,22.06 10.84,23.78 11.37,24.49 C11.9,25.2 8.98,25.27 10.12,27.63 C11.26,29.99 13,29.18 13,29.18 Z M85.86,58.18 C85.24,56.41 82.8,55.25 81.5,53.57 L64.67,53.67 C64.7966667,53.3166667 64.9166667,52.9566667 65.03,52.59 L80.69,52.43 C78.24,48.76 79.12,49.58 78.69,47.28 C77.6,45.87 77,44.86 75.87,43.48 C73.774707,40.8360418 71.3973192,38.4284756 68.78,36.3 L62.35,40 C62.11,39.68 61.85,39.38 61.59,39.08 L67.7,35.49 C60.59,30.41 54.7,31.49 47.17,32.83 L47.42,33.93 L47.3,33.93 C47.02,33.98 46.76,34.05 46.49,34.11 L46.36,33 C38.78,34.38 32.92,35.27 28,40.47 L35.49,43.06 L35.25,43.65 L27.53,41 C24.7438379,44.3744998 22.5801366,48.2176938 21.14,52.35 C20.97,52.79 22,52.73 21.83,53.2 C24.49,55.62 23.83,59.87 23.39,61.64 L36.39,57.45 C36.6026311,57.7949897 36.8329379,58.1287676 37.08,58.45 L22.87,62.8 C21.68,64.3 17.29,69.99 17.69,72.17 C18.03,74 18.15,77.96 20.49,77.68 C39.08,75.39 44.36,77.16 52.78,78.01 L52.84,78.01 L52.92,78.01 L56.08,78.42 C60.2,79.04 66.23,80.04 68.44,80.17 C88.47,81.34 88.11,64.66 85.82,58.18 L85.86,58.18 Z M25,20.52 C25.4,20.3 26.71,19.35 26.71,19.35 L26.36,20.63 C26.36,20.63 33.06,28.12 33.9,27.88 C34.74,27.64 37.9,21.09 37.9,21.09 L39.48,27 L40.48,32.78 L52.6,30.47 L51.11,19.3 C51.11,19.3 54.84,22.93 55.53,22.48 C56.22,22.03 60.7,14.48 60.7,14.48 L60.27,13.88 C61.2336371,13.9026184 62.1931357,13.7466575 63.1,13.42 C63.8170347,12.8357207 64.2110847,11.943532 64.16,11.02 C64.16,11.02 62.62,11.64 62.25,11.66 L61.04,11.75 L61.22,11.5 L61.12,10.85 L59.12,11.73 L58.94,12.65 L58.3,12.19 L54.72,16.9 L49.72,11.36 L49.29,10.77 L45.58,10.66 L45,9.26 L45.33,9.07 C45.4240096,8.20987765 45.4707466,7.34524431 45.47,6.48 C45.47,6.09 45.72,6.22 45.82,5.2 C45.88,4.49 45.29,4.56 45.22,4.29 C44.87,2.93 45.12,1.86 44.49,0.91 C43.86,-0.04 40.25,-0.19 38.83,1.32 C38.22,1.96 37.93,1.78 37.83,2.71 C37.8104096,3.52483524 37.9461607,4.33594798 38.23,5.1 C37.8026369,5.37354156 37.6478792,5.92379107 37.87,6.38 C38.34,7.6 38.97,7.79 38.97,7.79 L39.43,9.87 L38.98,10.06 L39.12,11.29 L35.12,13.29 L35.12,14.12 L32.62,21.31 L30.41,19.2 L28.82,17.68 L28.2,18 L28.33,17.42 C28.33,17.42 27.52,15.42 26.13,16.89 C22.95,17.6 24.36,18.4 25.18,17.89 C24.4056001,18.6180866 23.448323,19.1226442 22.41,19.35 C22.09,19.23 22.8,20.35 22.8,20.35 C23.5199162,20.52146 24.262289,20.5788251 25,20.52 Z M43.33,10.13 L44.66,9.67 L45.06,10.67 L44.13,11 L45.97,11.48 L45.54,17 L43.32,11.31 L43.33,10.13 Z M42.18,10.38 L42.53,11.46 L43.15,17.57 L40.04,12.16 L41.89,11.56 L39.59,11.22 L39.43,10.22 L42.18,10.38 Z M16,71.85 C16.56,69.15 19.32,66.18 19.32,66.18 L22.43,60.65 C22.6487863,59.163877 22.7057861,57.6584119 22.6,56.16 C22.24,55.16 15.86,46.6 15.86,46.6 L12.54,46.76 L11.23,45.36 L12.54,44.53 L12,42.06 L12.67,41.17 L12.2,40.17 L11.5,37.56 C11.5,37.56 14.5,36.85 11.38,34.56 C8.26,32.27 3.55,36.49 3.55,36.49 L3.71,39.81 C1.71,40.61 4.84,43.15 4.84,43.15 L5.43,44.89 L4.86,45.53 C4.87323609,46.3366857 4.42744549,47.0809622 3.71,47.45 C-2.73,49.94 1.71,58.99 2.71,60.55 L7.57,73.92 L7.68,76.14 L8.17,80.78 L18.04,78.23 C18.04,78.23 15.38,74.89 16,71.85 Z"></path>
                            </g>
                        </g>
                        <path d="M5.42,21.1 C5.42,21.1 11.54,10.51 37.07,7.1 C62.78,3.68 80.7,15.46 111.49,10.78 C122.35,9.13 130.49,7.28 132.49,0.86 L150.66,81 C150.66,81 135.66,95.74 109.95,95.74 C84.24,95.74 59.49,82 23.06,105.61 L5.42,21.1 Z" id="Shape" fill="url(#linearGradient-5)" fill-rule="nonzero"></path>
                        <path d="M5.34,20.75 C5.34,20.75 11.46,10.15 36.98,6.75 C62.7,3.33 80.61,15.11 111.41,10.43 C122.27,8.78 130.41,6.93 132.41,0.51 L150.54,80.64 C150.54,80.64 135.54,95.37 109.82,95.37 C84.1,95.37 59.41,81.68 23,105.26 L5.34,20.75 Z" id="Shape" fill="url(#linearGradient-6)" fill-rule="nonzero"></path>
                        <path d="M4.72,17.3 C4.72,17.3 4.09,16.3 2.08,16.76 C0.07,17.22 0.32,18.39 0.32,18.39 L20.88,125.806602 C20.88,126.186602 21.81,126.636602 24.06,126.266602 C25.0666667,126.099935 25.7866667,125.719935 26.22,125.126602 L4.72,17.3 Z" id="Shape" fill="url(#linearGradient-7)" fill-rule="nonzero"></path>
                        <path d="M20.53,105.38 C21.83,105.08 22.89,105.02 22.98,105.26 L5.36,20.54 C5.19,20.21 4.19,20.18 3.04,20.46 C1.89,20.74 0.92,21.3 1.04,21.67 L18.24,106.5 C18.19,106.25 19.22,105.69 20.53,105.38 Z" id="Shape" fill="url(#linearGradient-8)" fill-rule="nonzero"></path>
                        <g id="gal_copy_4" transform="translate(33.000000, 15.000000)" fill="#231F20">
                            <path d="M66.32,9.42 L66.42,11.86 L66.3,12.86 L67.12,13.45 L67.35,15.72 L68.7,16.08 L68,17.67 L65.09,18.43 C65.09,18.43 61.6,27.43 61.56,27.76 C61.5635466,28.8997859 61.633666,30.0383916 61.77,31.17 L69.36,34.62 L73.94,38.78 L77.99,44.48 L80.9,36.98 L83.29,35.92 L81.67,33.5 C81.67,33.5 79.87,29.77 80.79,27.4 C79.03,26.66 80.02,24.07 80.02,24.07 C80.18,23.49 81.54,22.71 82.55,22.35 C81.72,19.25 80.25,16.01 76.24,15.75 C75.12,15.69 74.72,14.41 74.72,14.41 L74,14 L74,12.33 C74,12.33 74.78,7.49 73.29,6.24 C72.55,5.58 67.64,3.95 65.55,6.78 C63.46,9.61 66.32,9.42 66.32,9.42 Z M70,16 L70.44,15.93 L70.62,17.05 L74,16.4 L70.67,17.4 L68.85,20.4 L70.07,17.4 L70,16 Z M69.36,17.4 L68.55,19.5 L67.85,18.75 L69.16,16.14 L69.36,17.4 Z M93.88,51.81 L94.65,49.08 L96.65,46.08 L96.74,37.8 L93.59,36.15 C93.59,36.15 95.59,35.76 96.03,32.88 C96.47,30 93.34,30.88 93.67,29.98 C94,29.08 93.67,27.18 91.67,24.11 C89.67,21.04 84.95,22.86 82.15,24.2 C79.35,25.54 82.4,27.08 82.4,27.08 C81.8715587,29.2370258 82.2051983,31.5151027 83.33,33.43 L85.33,34.11 L85.38,35.56 L84.45,35.85 L84.59,36.85 L81.76,38.55 C81.76,38.55 79.25,46.9 79.64,48.68 C80.03,50.46 82.78,53.68 82.78,53.68 C82.78,53.68 87.23,56.08 87.89,58.99 C88.89,64.51 86.2,76.86 86.2,76.86 L97.74,57.35 L93.88,51.81 Z M12.88,29.05 L10.24,30.59 L9.78,32.31 C11.1435863,32.4892871 12.3914346,33.1702558 13.28,34.22 C14.36,36.22 12.58,38.13 12.58,38.13 L13.11,41.39 L13.75,45.3 L16.37,44.99 L18.28,47.13 L20.62,50.54 L22.12,46.06 L25.31,40.96 L29.65,36.8 L23.81,28.48 L20.91,27.77 L20.75,27 L19.87,27 L19.52,25.73 L21.09,24.59 C21.5410279,22.6351154 21.2071045,20.5813071 20.16,18.87 C20.16,18.87 22.39,16.7 19.6,16.31 C16.81,15.92 12.21,15.65 11.36,18.83 C10.51,22.01 10.71,23.73 11.25,24.43 C11.79,25.13 8.85,25.21 10,27.58 C11.15,29.95 12.86,29.09 12.86,29.09 L12.88,29.05 Z M85.75,58.05 C85.12,56.28 82.69,55.11 81.38,53.44 L64.56,53.53 C64.69,53.18 64.81,52.83 64.92,52.46 L80.58,52.29 C78.13,48.63 79,49.44 78.58,47.15 C77.48,45.74 76.89,44.73 75.75,43.34 C73.6552414,40.6988721 71.2814901,38.2915932 68.67,36.16 L62.26,39.88 C62.02,39.57 61.76,39.26 61.5,38.97 L67.61,35.37 C60.49,30.29 54.61,31.37 47.08,32.72 L47.33,33.82 L47.2,33.82 C46.93,33.82 46.66,33.93 46.39,33.99 L46.26,32.86 C38.69,34.23 32.83,35.12 27.9,40.33 L35.4,43 C35.31,43.19 35.24,43.39 35.16,43.59 L27.43,40.92 C24.6395536,44.2898844 22.4784344,48.1345088 21.05,52.27 C20.88,52.71 21.91,52.65 21.74,53.11 C24.39,55.54 23.74,59.79 23.3,61.55 L36.3,57.37 C36.52,57.7033333 36.75,58.0366667 36.99,58.37 L22.78,62.78 C21.59,64.28 17.2,69.97 17.61,72.15 C17.94,73.97 18.06,77.94 20.4,77.65 C39,75.37 44.27,77.14 52.69,77.99 L52.76,77.99 L52.84,77.99 L56.01,78.4 C60.13,79.02 66.16,80.02 68.36,80.14 C88.37,81.24 88,64.56 85.73,58.09 L85.75,58.05 Z M25,20.43 C25.4,20.21 26.71,19.26 26.71,19.26 L26.36,20.54 C26.36,20.54 33,28 33.84,27.79 C34.68,27.58 37.84,21 37.84,21 L39.36,26.89 L40.36,32.66 L52.47,30.35 L50.99,19.18 C50.99,19.18 54.72,22.82 55.41,22.37 C56.1,21.92 60.58,14.37 60.58,14.37 L60.15,13.77 C61.1103534,13.7923046 62.0665169,13.6363347 62.97,13.31 C63.6938337,12.7309295 64.0895142,11.8350492 64.03,10.91 C64.03,10.86 62.49,11.52 62.13,11.55 L60.92,11.64 L61.1,11.38 L60.99,10.73 L58.99,11.61 L58.8,12.53 L58.17,12.08 L54.59,16.79 L49.59,11.25 L49.16,10.65 L45.45,10.55 L44.86,9.15 L45.2,8.95 C45.2938046,8.09320666 45.3405414,7.23191289 45.34,6.37 C45.34,5.98 45.59,6.1 45.68,5.08 C45.75,4.37 45.16,4.45 45.09,4.18 C44.74,2.82 44.99,1.75 44.36,0.8 C43.73,-0.15 40.12,-0.31 38.69,1.2 C38.08,1.85 37.79,1.66 37.69,2.59 C37.6730647,3.40877413 37.81221,4.22328311 38.1,4.99 C37.6689875,5.26040298 37.5097333,5.81133662 37.73,6.27 C38.21,7.48 38.84,7.68 38.84,7.68 L39.3,9.75 L38.85,9.95 L38.99,11.18 L34.99,13.18 L34.99,14 L32.55,21.2 L30.31,19.11 L28.72,17.58 L28.11,17.9 L28.24,17.33 C28.24,17.33 27.42,15.33 26.03,16.79 C22.86,17.51 24.26,18.31 25.09,17.79 C24.3122293,18.5188517 23.3515368,19.023388 22.31,19.25 C22,19.12 22.71,20.25 22.71,20.25 C23.4592853,20.4289934 24.2319506,20.4897269 25,20.43 Z M43.28,10 L44.61,9.55 L45.01,10.55 L44.08,10.88 L45.92,11.36 L45.45,16.83 L43.22,11.14 L43.28,10 Z M42.12,10.25 L42.48,11.33 L43.09,17.44 L40,12.07 L41.86,11.47 L39.56,11.12 L39.39,10.12 L42.12,10.25 Z M15.91,71.75 C16.46,69.05 19.22,66.08 19.22,66.08 L22.34,60.56 C22.5594669,59.0738788 22.6131294,57.5679732 22.5,56.07 C22.15,55.12 15.77,46.5 15.77,46.5 L12.45,46.67 L11.13,45.27 L12.44,44.44 L11.93,42 L12.59,41.11 L12.12,40.11 L11.42,37.51 C11.42,37.51 14.42,36.79 11.31,34.51 C8.2,32.23 3.48,36.45 3.48,36.45 L3.64,39.76 C1.64,40.57 4.76,43.1 4.76,43.1 L5.36,44.84 L4.79,45.48 C4.79854486,46.2854223 4.35411765,47.0274225 3.64,47.4 C-2.81,49.9 1.64,58.95 2.64,60.5 L7.49,73.88 L7.6,76.09 L8.09,80.73 L18,78.09 C18,78.09 15.29,74.8 15.91,71.75 Z" id="Shape"></path>
                        </g>
                    </g>
                </g>
            </g>
        </g>
    </g>
</svg>